<svg width="155" height="29" viewBox="0 0 155 29" fill="none" xmlns="http://www.w3.org/2000/svg">
<g clip-path="url(#clip0_540_984)">
<path d="M179.557 4.34632C179.052 3.83717 178.468 3.42189 177.829 3.11826C177.252 2.84983 176.628 2.71231 175.997 2.71471C175.495 2.69485 174.996 2.78073 174.527 2.96725C174.058 3.15376 173.629 3.43712 173.267 3.80052C172.916 4.16356 172.64 4.59889 172.458 5.07908C172.275 5.55927 172.19 6.07389 172.206 6.59052C172.187 7.1024 172.271 7.61283 172.452 8.08855C172.633 8.56427 172.908 8.9946 173.258 9.35149C173.625 9.70938 174.056 9.98734 174.526 10.1692C174.996 10.3511 175.496 10.4334 175.997 10.4112C176.677 10.4071 177.35 10.2733 177.985 10.0163C178.695 9.72394 179.362 9.326 179.964 8.83471L179.765 12.1299C179.192 12.4964 178.57 12.7732 177.921 12.9515C177.243 13.1456 176.544 13.2433 175.842 13.2418C175.091 13.2428 174.345 13.1274 173.627 12.8992C172.926 12.6747 172.264 12.3336 171.666 11.8889C170.854 11.2964 170.189 10.5078 169.728 9.58955C169.276 8.67423 169.044 7.65647 169.053 6.62536C169.047 5.73751 169.216 4.85791 169.548 4.04149C169.885 3.23206 170.379 2.50527 170.999 1.90762C171.643 1.28955 172.395 0.808401 173.214 0.490841C174.063 0.161304 174.961 -0.00490399 175.866 0.000199359C176.58 -0.00503046 177.291 0.0926589 177.979 0.290522C178.655 0.484285 179.302 0.777518 179.9 1.16149L179.565 4.33762L179.557 4.34632ZM163.654 12.8266V0.421166H166.791V12.8266H163.654ZM151.796 12.8266V0.421166H155.173C156.021 0.403685 156.867 0.474679 157.701 0.6331C158.262 0.754127 158.797 0.982453 159.279 1.30665C159.747 1.61281 160.138 2.03315 160.417 2.53181C160.682 3.00018 160.822 3.53471 160.822 4.07923C160.833 4.81378 160.612 5.53168 160.193 6.1202C159.723 6.74914 159.093 7.22695 158.377 7.49923L162.369 12.8266H158.789L155.284 7.95504H154.838V12.8266H151.796ZM155.353 2.66536H154.838V6.1202H155.5C156.292 6.1202 156.896 5.96923 157.311 5.66729C157.513 5.52498 157.678 5.33017 157.787 5.10178C157.897 4.87338 157.948 4.61915 157.937 4.36375C157.955 4.11198 157.909 3.85959 157.802 3.63321C157.695 3.40683 157.532 3.21488 157.33 3.07762C156.926 2.81052 156.267 2.67988 155.353 2.67988V2.66536ZM141.233 12.8266V0.421166H149.326V2.97891H144.284V5.2231H148.606V7.76633H144.284V10.2137H149.395V12.8266H141.233ZM123.76 12.8266L126.487 0.0118103H126.712L131.676 8.1002L136.347 0.017618H136.582L139.331 12.8266H136.349L135.242 7.15955L131.717 13.2796H131.51L127.717 7.07826L126.565 12.8266H123.76ZM97.8067 10.2312C98.1036 10.3589 98.4089 10.4637 98.7204 10.5447C98.9599 10.6112 99.2063 10.6473 99.4541 10.6521C100.08 10.6521 100.52 10.4605 100.786 10.0715C101.052 9.68245 101.184 9.03213 101.184 8.10891V0.421166H104.341V8.81729C104.341 10.2486 103.95 11.346 103.17 12.1008C102.389 12.8557 101.265 13.236 99.7918 13.236C99.5142 13.2361 99.2369 13.2186 98.9612 13.1837C98.6738 13.1477 98.3882 13.0964 98.1057 13.0299L97.8067 10.237V10.2312ZM84.9213 12.8266V0.017618H85.2231L93.4018 7.27568V0.421166H96.2922V13.3028H96.0154L87.8146 6.06213V12.8266H84.9213ZM73.6446 12.8266H70.4883L77.1829 0.029229H77.3823L83.9357 12.8266H80.6548L77.1525 5.81826L73.6446 12.8266ZM113.04 12.8266H109.886L116.581 0.029229H116.783L123.331 12.8266H120.047L116.545 5.81245L113.04 12.8266ZM183.835 12.8266H180.681L187.376 0.029229H187.578L194.126 12.8266H190.845L187.343 5.81245L183.835 12.8266Z" fill="white"/>
</g>
<g clip-path="url(#clip1_540_984)">
<path d="M140.433 19.4616C139.928 18.9524 139.344 18.5371 138.705 18.2335C138.128 17.9651 137.504 17.8275 136.873 17.8299C136.371 17.8101 135.872 17.896 135.403 18.0825C134.934 18.269 134.505 18.5524 134.143 18.9158C133.792 19.2788 133.516 19.7141 133.334 20.1943C133.151 20.6745 133.066 21.1891 133.082 21.7058C133.063 22.2176 133.146 22.7281 133.328 23.2038C133.509 23.6795 133.784 24.1098 134.134 24.4667C134.501 24.8246 134.932 25.1026 135.402 25.2845C135.872 25.4664 136.372 25.5486 136.873 25.5264C137.553 25.5223 138.226 25.3885 138.86 25.1316C139.571 24.8392 140.238 24.4412 140.84 23.9499L140.641 27.2451C140.068 27.6117 139.446 27.8885 138.797 28.0667C138.119 28.2608 137.42 28.3585 136.718 28.357C135.967 28.3581 135.221 28.2426 134.503 28.0145C133.802 27.7899 133.14 27.4488 132.542 27.0041C131.73 26.4116 131.065 25.623 130.604 24.7048C130.152 23.7895 129.92 22.7717 129.929 21.7406C129.923 20.8527 130.092 19.9731 130.424 19.1567C130.761 18.3473 131.255 17.6205 131.875 17.0229C132.519 16.4048 133.271 15.9236 134.09 15.6061C134.939 15.2765 135.837 15.1103 136.742 15.1154C137.456 15.1102 138.167 15.2079 138.855 15.4058C139.531 15.5995 140.178 15.8928 140.776 16.2767L140.441 19.4528L140.433 19.4616ZM124.53 27.9419V15.5364H127.667V27.9419H124.53ZM112.672 27.9419V15.5364H116.049C116.897 15.5189 117.743 15.5899 118.577 15.7483C119.138 15.8694 119.673 16.0977 120.155 16.4219C120.623 16.728 121.014 17.1484 121.293 17.647C121.558 18.1154 121.698 18.6499 121.698 19.1945C121.709 19.929 121.488 20.6469 121.069 21.2354C120.599 21.8644 119.969 22.3422 119.253 22.6145L123.245 27.9419H119.665L116.16 23.0703H115.714V27.9419H112.672ZM116.229 17.7806H115.714V21.2354H116.376C117.168 21.2354 117.772 21.0845 118.187 20.7825C118.389 20.6402 118.554 20.4454 118.663 20.217C118.773 19.9886 118.824 19.7344 118.813 19.479C118.831 19.2272 118.785 18.9748 118.678 18.7484C118.571 18.5221 118.408 18.3301 118.206 18.1929C117.802 17.9258 117.143 17.7951 116.229 17.7951V17.7806ZM102.109 27.9419V15.5364H110.202V18.0941H105.16V20.3383H109.482V22.8816H105.16V25.329H110.271V27.9419H102.109ZM84.6362 27.9419L87.3633 15.127H87.5876L92.5518 23.2154L97.2225 15.1329H97.4579L100.207 27.9419H97.2253L96.1178 22.2748L92.5933 28.3948H92.3857L88.5926 22.1935L87.4408 27.9419H84.6362ZM58.6827 25.3464C58.9795 25.4742 59.2849 25.579 59.5963 25.6599C59.8359 25.7265 60.0823 25.7625 60.33 25.7674C60.9558 25.7674 61.396 25.5758 61.6618 25.1867C61.9276 24.7977 62.0605 24.1474 62.0605 23.2241V15.5364H65.2167V23.9325C65.2167 25.3638 64.8264 26.4612 64.0456 27.2161C63.2648 27.9709 62.1407 28.3512 60.6678 28.3512C60.3902 28.3513 60.1128 28.3338 59.8372 28.299C59.5497 28.263 59.2642 28.2116 58.9817 28.1451L58.6827 25.3522V25.3464ZM45.7973 27.9419V15.1329H46.0991L54.2777 22.3909V15.5364H57.1682V28.418H56.8914L48.6906 21.1774V27.9419H45.7973ZM34.5205 27.9419H31.3643L38.0589 15.1445H38.2582L44.8117 27.9419H41.5308L38.0284 20.9335L34.5205 27.9419ZM73.9159 27.9419H70.7624L77.457 15.1445H77.6591L84.207 27.9419H80.9234L77.421 20.9277L73.9159 27.9419ZM144.711 27.9419H141.557L148.252 15.1445H148.454L155.002 27.9419H151.721L148.219 20.9277L144.711 27.9419Z" fill="white"/>
</g>
<path fill-rule="evenodd" clip-rule="evenodd" d="M27.4598 0.508789H18.209L23.5298 12.6179C24.1638 14.0544 25.8135 15.1807 27.0849 15.1807H34.0247C35.2961 15.1807 35.712 14.0642 35.095 12.6179L31.0286 3.07165C30.4082 1.62535 28.7483 0.508789 27.4735 0.508789H27.4598Z" fill="#07038C"/>
<path fill-rule="evenodd" clip-rule="evenodd" d="M18.3394 0.508789H27.5902L15.5444 25.8663C14.8627 27.2799 13.2607 28.4291 11.9893 28.4291H5.04955C3.77817 28.4291 3.30779 27.2832 3.97927 25.8663L14.7843 3.07164C15.466 1.65473 17.068 0.508789 18.3394 0.508789Z" fill="#0339D9"/>
<path fill-rule="evenodd" clip-rule="evenodd" d="M31.601 24.6578C48.9847 24.1812 63.0075 21.7881 62.9325 19.3167C62.8575 16.8452 48.7086 15.2227 31.3318 15.6993C13.9549 16.176 -0.0746891 18.569 0.000299213 21.0437C0.0283713 21.2219 0.0989415 21.3914 0.206531 21.5392C0.314121 21.687 0.455831 21.809 0.620654 21.8958C0.509623 21.7747 0.44264 21.6223 0.429776 21.4616C0.365013 19.2253 13.839 17.0411 30.5239 16.5841C47.2088 16.127 60.7885 17.5635 60.8601 19.8031C60.9317 22.0428 47.686 24.1844 31.2057 24.6676H31.6045L31.601 24.6578Z" fill="#FFD700"/>
<path fill-rule="evenodd" clip-rule="evenodd" d="M32.4359 28.5535H41.6867L38.0259 19.7191C37.4226 18.2663 35.7422 17.1562 34.4708 17.1562H27.531C26.2596 17.1562 25.8267 18.2728 26.4607 19.7191L28.8808 25.9906C29.45 27.4598 31.1645 28.5535 32.4359 28.5535Z" fill="#07038C"/>
<path fill-rule="evenodd" clip-rule="evenodd" d="M41.4402 28.5465H32.1895L44.6612 2.92806C45.3429 1.51769 46.9415 0.365234 48.2163 0.365234H55.1527C56.4275 0.365234 56.9115 1.51769 56.2264 2.92806L45.0021 25.9837C44.3204 27.3941 42.7184 28.5465 41.447 28.5465H41.4402Z" fill="#0339D9"/>
<defs>
<clipPath id="clip0_540_984">
<rect width="35.2132" height="13.3028" fill="white" transform="translate(70.4883)"/>
</clipPath>
<clipPath id="clip1_540_984">
<rect width="84.5117" height="13.3028" fill="white" transform="translate(70.4883 15.1152)"/>
</clipPath>
</defs>
</svg>
