<svg width="239" height="29" viewBox="0 0 239 29" fill="none" xmlns="http://www.w3.org/2000/svg">
<path d="M219.667 12.9529C218.996 12.3811 218.221 11.9147 217.374 11.5731C216.609 11.2717 215.78 11.1176 214.942 11.1207C214.277 11.0982 213.613 11.195 212.991 11.4034C212.368 11.6134 211.799 11.9318 211.319 12.34C210.854 12.7468 210.488 13.2364 210.246 13.7764C210.004 14.3164 209.89 14.8936 209.912 15.4738C209.885 16.0487 209.997 16.622 210.237 17.1565C210.477 17.6911 210.842 18.1745 211.307 18.5758C211.794 18.9779 212.366 19.2901 212.99 19.4946C213.614 19.6991 214.277 19.7914 214.942 19.7666C215.844 19.7619 216.739 19.6116 217.579 19.3234C218.523 18.9949 219.407 18.5479 220.206 17.9956L219.941 21.6972C219.181 22.1093 218.356 22.42 217.495 22.6199C216.596 22.8384 215.668 22.9476 214.736 22.9461C213.741 22.9476 212.75 22.8174 211.797 22.5617C210.867 22.3092 209.989 21.9265 209.196 21.426C208.118 20.7613 207.235 19.8743 206.624 18.8431C206.023 17.815 205.715 16.6715 205.726 15.5133C205.719 14.5163 205.943 13.5277 206.385 12.6112C206.831 11.7017 207.488 10.8843 208.31 10.2134C209.165 9.51929 210.163 8.97852 211.249 8.62214C212.375 8.25105 213.568 8.06436 214.769 8.07056C215.716 8.06436 216.658 8.17439 217.572 8.39673C218.471 8.61443 219.329 8.94369 220.122 9.37521L219.676 12.9428L219.667 12.9529ZM198.564 22.4796V8.54393H202.726V22.4796H198.564ZM182.827 22.4796V8.54393H187.31C188.434 8.52457 189.558 8.60359 190.665 8.78178C191.409 8.91813 192.118 9.17456 192.758 9.53868C193.38 9.88265 193.897 10.356 194.268 10.9153C194.62 11.4414 194.806 12.0418 194.806 12.6538C194.821 13.4781 194.528 14.2846 193.971 14.9462C193.348 15.6528 192.512 16.1889 191.561 16.4957L196.858 22.4804H192.108L187.457 17.0078H186.866V22.4804H182.827V22.4796ZM187.548 11.0641H186.865V14.9455H187.743C188.793 14.9455 189.594 14.7758 190.146 14.4372C190.415 14.2769 190.632 14.0584 190.777 13.802C190.923 13.5448 190.991 13.2597 190.976 12.973C191 12.6902 190.939 12.4067 190.797 12.1518C190.655 11.8969 190.439 11.6823 190.171 11.5274C189.634 11.2275 188.761 11.0811 187.548 11.0811V11.0641ZM168.81 22.4796V8.54393H179.55V11.4174H172.859V13.9383H178.594V16.7955H172.859V19.545H179.642V22.4804H168.81V22.4796ZM145.624 22.4796L149.243 8.08375H149.541L156.128 17.1705L162.327 8.08995H162.639L166.288 22.4796H162.33L160.861 16.1129L156.183 22.9879H155.908L150.875 16.0215L149.346 22.4796H145.624ZM111.183 19.5635C111.577 19.7076 111.983 19.8247 112.396 19.9161C112.713 19.9905 113.04 20.0307 113.369 20.0361C114.199 20.0361 114.784 19.8208 115.136 19.3839C115.489 18.9469 115.665 18.2163 115.665 17.179V8.54313H119.853V17.9747C119.853 19.583 119.335 20.8155 118.299 21.6639C117.263 22.5122 115.772 22.9391 113.817 22.9391C113.448 22.9391 113.08 22.9196 112.714 22.8801C112.333 22.8391 111.954 22.7817 111.579 22.7074L111.182 19.569V19.5635H111.183ZM94.0849 22.4796V8.08995H94.4848L105.338 16.2439V8.54393H109.174V23.015H108.807L97.9242 14.8812V22.4804H94.0849V22.4796ZM79.1196 22.4796H74.9316L83.8152 8.10309H84.0801L92.7766 22.4796H88.4228L83.7751 14.6069L79.1196 22.4796ZM131.398 22.4796H127.214L136.097 8.10309H136.366L145.054 22.4796H140.697L136.05 14.5999L131.398 22.4796ZM225.344 22.4796H221.159L230.043 8.10309H230.311L239 22.4796H234.646L229.998 14.5999L225.344 22.4796Z" fill="white"/>
<path d="M29.5984 0.824975H19.627L25.3616 12.9215C26.0444 14.3571 27.8227 15.4812 29.1933 15.4812H36.6729C38.0436 15.4812 38.4922 14.3664 37.8274 12.9215L33.4445 3.38467C32.7755 1.93981 30.987 0.824219 29.6129 0.824219H29.5984V0.824975Z" fill="#07038C"/>
<path d="M19.7662 0.822266H29.7376L16.754 26.1534C16.0191 27.5649 14.2921 28.7139 12.9223 28.7139H5.4419C4.07125 28.7139 3.56449 27.568 4.28827 26.1534L15.9346 3.38196C16.6694 1.96654 18.3964 0.822266 19.7662 0.822266Z" fill="#0339D9"/>
<path d="M34.0624 24.9468C52.8003 24.4711 67.9151 22.0803 67.8339 19.6105C67.7536 17.1415 52.5021 15.5207 33.7718 15.9972C15.0416 16.4736 -0.0808542 18.8636 0.000325313 21.3365C0.0302335 21.514 0.107149 21.6836 0.222509 21.8316C0.337869 21.9796 0.490857 22.1012 0.668598 22.188C0.548965 22.0671 0.477161 21.9146 0.462634 21.7534C0.392564 19.5199 14.9169 17.3382 32.9011 16.8811C50.8853 16.4248 65.5233 17.8604 65.6002 20.097C65.6771 22.3336 51.3998 24.4734 33.636 24.956H34.0658L34.0624 24.9468Z" fill="#FFD700"/>
<path d="M34.9626 28.8393H44.934L40.9887 20.0136C40.3375 18.5617 38.5268 17.4531 37.1562 17.4531H29.6757C28.305 17.4531 27.8393 18.5679 28.5221 20.0136L31.1309 26.2788C31.7436 27.7469 33.5919 28.8393 34.9626 28.8393Z" fill="#07038C"/>
<path d="M44.6687 28.8324H34.6973L48.1406 3.24019C48.8746 1.83174 50.5973 0.679688 51.9714 0.679688H59.4484C60.8225 0.679688 61.3438 1.83097 60.6055 3.24019L48.5072 26.2719C47.7723 27.6803 46.0453 28.8324 44.6746 28.8324H44.6687Z" fill="#0339D9"/>
</svg>
