<svg width="208" height="22" viewBox="0 0 208 22" fill="none" xmlns="http://www.w3.org/2000/svg">
<path d="M189.556 8.6617C188.916 8.05982 188.177 7.5689 187.369 7.20998C186.638 6.89266 185.847 6.7301 185.048 6.73293C184.414 6.70946 183.781 6.81097 183.187 7.03146C182.594 7.25195 182.051 7.58691 181.592 8.01649C181.148 8.44564 180.799 8.96026 180.568 9.5279C180.337 10.0955 180.229 10.7039 180.25 11.3146C180.225 11.9197 180.331 12.5231 180.56 13.0855C180.79 13.6478 181.138 14.1565 181.582 14.5784C182.046 15.0015 182.592 15.3301 183.187 15.5451C183.782 15.7601 184.414 15.8574 185.048 15.8311C185.909 15.8262 186.762 15.6681 187.565 15.3644C188.464 15.0187 189.308 14.5483 190.071 13.9675L189.819 17.8628C189.093 18.2961 188.307 18.6233 187.484 18.8341C186.627 19.0636 185.741 19.179 184.852 19.1773C183.902 19.1785 182.957 19.042 182.048 18.7723C181.161 18.5069 180.323 18.1036 179.566 17.578C178.538 16.8776 177.696 15.9453 177.112 14.8598C176.539 13.7778 176.246 12.5747 176.257 11.3558C176.25 10.3063 176.463 9.26646 176.885 8.30135C177.311 7.34451 177.936 6.48534 178.721 5.77884C179.537 5.04822 180.489 4.47943 181.526 4.10404C182.6 3.71449 183.738 3.51801 184.883 3.52404C185.787 3.51786 186.687 3.63334 187.558 3.86724C188.414 4.09629 189.233 4.44293 189.991 4.89683L189.566 8.6514L189.556 8.6617ZM169.422 18.6865V4.02167H173.393V18.6865H169.422ZM154.409 18.6865V4.02167H158.686C159.758 4.00101 160.83 4.08493 161.886 4.27221C162.596 4.41528 163.273 4.68519 163.884 5.06843C164.476 5.43035 164.971 5.92724 165.325 6.51672C165.66 7.07038 165.837 7.70227 165.836 8.34596C165.851 9.21429 165.571 10.0629 165.041 10.7586C164.445 11.5021 163.648 12.067 162.741 12.3888L167.796 18.6865H163.263L158.826 12.9276H158.262V18.6865H154.409ZM158.913 6.67459H158.262V10.7586H159.099C160.102 10.7586 160.866 10.5802 161.392 10.2232C161.648 10.055 161.856 9.82473 161.995 9.55474C162.133 9.28475 162.199 8.98421 162.184 8.6823C162.208 8.38468 162.149 8.08631 162.014 7.81871C161.879 7.5511 161.672 7.32419 161.416 7.16193C160.904 6.84619 160.07 6.69175 158.913 6.69175V6.67459ZM141.037 18.6865V4.02167H151.283V7.04524H144.9V9.69816H150.371V12.7046H144.9V15.5977H151.37V18.6865H141.037ZM118.916 18.6865L122.368 3.53776H122.652L128.937 13.0992L134.85 3.54463H135.148L138.629 18.6865H134.854L133.452 11.9873L128.99 19.2219H128.727L123.925 11.8912L122.466 18.6865H118.916ZM86.058 15.6183C86.4339 15.7693 86.8205 15.8932 87.2148 15.989C87.5181 16.0676 87.8299 16.1102 88.1436 16.1159C88.9358 16.1159 89.4931 15.8894 89.8296 15.4296C90.1661 14.9697 90.3344 14.2009 90.3344 13.1095V4.02167H94.3303V13.9469C94.3303 15.6389 93.8361 16.9362 92.8476 17.8285C91.8591 18.7208 90.436 19.1704 88.5713 19.1704C88.2198 19.1705 87.8686 19.1498 87.5197 19.1086C87.1558 19.066 86.7942 19.0053 86.4366 18.9267L86.058 15.6252V15.6183ZM69.7449 18.6865V3.54463H70.1269L80.4813 12.1246V4.02167H84.1407V19.2493H83.7902L73.4078 10.69V18.6865H69.7449ZM55.4682 18.6865H51.4723L59.9478 3.55836H60.2002L68.497 18.6865H64.3434L59.9093 10.4017L55.4682 18.6865ZM105.344 18.6865H101.351L109.827 3.55836H110.083L118.372 18.6865H114.215L109.781 10.3948L105.344 18.6865ZM194.971 18.6865H190.979L199.455 3.55836H199.71L208 18.6865H203.847L199.413 10.3948L194.971 18.6865Z" fill="#0339D9"/>
<path fill-rule="evenodd" clip-rule="evenodd" d="M20.4233 0.10791H13.5435L17.5005 9.31365C17.972 10.4057 19.1989 11.262 20.1445 11.262H25.3056C26.2512 11.262 26.5604 10.4132 26.1016 9.31365L23.0774 2.05628C22.6161 0.956755 21.3815 0.10791 20.4335 0.10791H20.4233Z" fill="#0339D9"/>
<path fill-rule="evenodd" clip-rule="evenodd" d="M13.6364 0.10791H20.5162L11.5577 19.3856C11.0507 20.4603 9.85931 21.334 8.91378 21.334H3.75263C2.80709 21.334 2.45727 20.4628 2.95665 19.3856L10.9924 2.05628C11.4994 0.979094 12.6909 0.10791 13.6364 0.10791Z" fill="#0339D9"/>
<path fill-rule="evenodd" clip-rule="evenodd" d="M23.5017 18.4699C36.43 18.1075 46.8588 16.2882 46.803 14.4094C46.7472 12.5305 36.2247 11.2969 23.3015 11.6593C10.3783 12.0217 -0.0555464 13.841 0.000222525 15.7223C0.0210998 15.8578 0.0735829 15.9867 0.153598 16.099C0.233612 16.2114 0.339002 16.3042 0.461581 16.3701C0.379007 16.2781 0.329192 16.1622 0.319625 16.04C0.271461 14.3399 10.2921 12.6794 22.7007 12.3319C35.1093 11.9844 45.2085 13.0765 45.2617 14.7792C45.315 16.4818 35.4642 18.11 23.2077 18.4774H23.5043L23.5017 18.4699Z" fill="#FFD700"/>
<path fill-rule="evenodd" clip-rule="evenodd" d="M24.1208 21.4297H31.0006L28.2781 14.7134C27.8294 13.6089 26.5797 12.765 25.6341 12.765H20.473C19.5274 12.765 19.2055 13.6139 19.677 14.7134L21.4768 19.4813C21.9001 20.5982 23.1752 21.4297 24.1208 21.4297Z" fill="#0339D9"/>
<path fill-rule="evenodd" clip-rule="evenodd" d="M30.817 21.4246H23.9371L33.2125 1.94837C33.7195 0.876146 34.9084 0 35.8565 0H41.0151C41.9632 0 42.3231 0.876146 41.8136 1.94837L33.466 19.4763C32.959 20.5485 31.7676 21.4246 30.8221 21.4246H30.817Z" fill="#0339D9"/>
</svg>
