<svg id="Layer_1" data-name="Layer 1" xmlns="http://www.w3.org/2000/svg" viewBox="0 0 560.56 284.57"><defs><style>.cls-1,.cls-2{fill:#0339D9;}.cls-2,.cls-3,.cls-4{fill-rule:evenodd;}.cls-3{fill:#0339d9;}.cls-4{fill:gold;}</style></defs><path class="cls-1" d="M440.94,179.79a22.31,22.31,0,0,0-6.24-4.23,16.18,16.18,0,0,0-6.62-1.39,13.53,13.53,0,0,0-9.86,3.74,12.89,12.89,0,0,0-3.83,9.61,12.56,12.56,0,0,0,3.8,9.51,13.67,13.67,0,0,0,9.89,3.65,20.25,20.25,0,0,0,7.18-1.36,28.77,28.77,0,0,0,7.15-4.07l-.72,11.35a24.9,24.9,0,0,1-6.66,2.83,28.28,28.28,0,0,1-7.51,1,27.47,27.47,0,0,1-8-1.18,24.71,24.71,0,0,1-7.08-3.48,22.3,22.3,0,0,1-7-7.92A21.73,21.73,0,0,1,403,187.64a22.25,22.25,0,0,1,1.79-8.9,21.85,21.85,0,0,1,5.24-7.35,24.37,24.37,0,0,1,8-4.88,27.17,27.17,0,0,1,9.58-1.69,28.11,28.11,0,0,1,7.63,1,26.83,26.83,0,0,1,6.94,3l-1.21,10.94ZM383.5,209V166.27h11.33V209Zm-42.83,0V166.27h12.2A46.12,46.12,0,0,1,362,167a16.85,16.85,0,0,1,5.7,2.32,12.35,12.35,0,0,1,4.11,4.22,10.44,10.44,0,0,1,1.46,5.33A11.42,11.42,0,0,1,371,185.9a14.7,14.7,0,0,1-6.56,4.75L378.86,209H365.93l-12.66-16.78h-1.61V209Zm12.85-35h-1.86V185.9h2.39q4.29,0,6.54-1.56a5.11,5.11,0,0,0,2.26-4.49,4.83,4.83,0,0,0-2.19-4.43c-1.46-.92-3.84-1.37-7.14-1.37Zm-51,35V166.27h29.23v8.81H313.54v7.73h15.61v8.76H313.54V200H332v9Zm-63.11,0,9.85-44.14h.81L268,192.72l16.87-27.84h.85L295.65,209H284.88l-4-19.52-12.73,21.08h-.75L253.7,189.2,249.54,209Zm-93.74-8.94a23.74,23.74,0,0,0,3.3,1.08,11.17,11.17,0,0,0,2.65.37c2.26,0,3.85-.66,4.81-2s1.44-3.58,1.44-6.76V166.27h11.4v28.92c0,4.93-1.41,8.71-4.23,11.31s-6.88,3.91-12.2,3.91a25,25,0,0,1-3-.18,30.79,30.79,0,0,1-3.09-.53l-1.08-9.62ZM99.13,209V164.88h1.09l29.54,25V166.27H140.2v44.37h-1L109.58,185.7V209ZM58.4,209H47l24.18-44.08h.72L95.57,209H83.72L71.07,184.86,58.4,209Zm142.29,0H189.3l24.18-44.08h.73L237.86,209H226l-12.65-24.16L200.69,209Zm255.7,0H445l24.18-44.08h.73L493.56,209H481.71l-12.65-24.16L456.39,209Z"/><path class="cls-2" d="M258.53,66.59H231.39L247,103.68c1.86,4.4,6.7,7.85,10.43,7.85h20.36c3.73,0,4.95-3.42,3.14-7.85L269,74.44c-1.82-4.43-6.69-7.85-10.43-7.85Z"/><path class="cls-3" d="M231.77,66.59h27.14l-35.34,77.67c-2,4.33-6.7,7.85-10.43,7.85H192.78c-3.73,0-5.11-3.51-3.14-7.85l31.7-69.82c2-4.34,6.7-7.85,10.43-7.85Z"/><path class="cls-4" d="M270.68,140.56c51-1.46,92.14-8.79,91.92-16.36s-41.73-12.54-92.71-11.08-92.14,8.79-91.92,16.37a3.59,3.59,0,0,0,1.82,2.61,2.28,2.28,0,0,1-.56-1.33c-.19-6.85,39.34-13.54,88.29-14.94s88.79,3,89,9.86-38.65,13.42-87,14.9l1.17,0Z"/><path class="cls-2" d="M273.13,152.49h27.14l-10.74-27.06c-1.77-4.45-6.7-7.85-10.43-7.85H258.74c-3.73,0-5,3.42-3.14,7.85l7.1,19.21c1.67,4.5,6.7,7.85,10.43,7.85Z"/><path class="cls-3" d="M299.55,152.47H272.41L309,74c2-4.32,6.69-7.85,10.43-7.85h20.35c3.74,0,5.16,3.53,3.15,7.85L310,144.62c-2,4.32-6.7,7.85-10.43,7.85Z"/></svg>