<svg width="295" height="31" viewBox="0 0 295 31" fill="none" xmlns="http://www.w3.org/2000/svg">
<path d="M268.841 12.287C267.934 11.4333 266.885 10.7371 265.739 10.228C264.703 9.77797 263.581 9.54741 262.448 9.55143C261.548 9.51814 260.65 9.66212 259.808 9.97482C258.966 10.2875 258.197 10.7626 257.546 11.3719C256.916 11.9805 256.421 12.7104 256.094 13.5155C255.766 14.3205 255.612 15.1834 255.642 16.0495C255.607 16.9077 255.757 17.7635 256.083 18.5611C256.408 19.3587 256.902 20.0801 257.531 20.6785C258.19 21.2785 258.963 21.7446 259.807 22.0495C260.651 22.3545 261.549 22.4924 262.448 22.4551C263.669 22.4482 264.878 22.2239 266.017 21.7932C267.293 21.3029 268.49 20.6358 269.572 19.8121L269.214 25.3367C268.184 25.9513 267.069 26.4153 265.903 26.7142C264.686 27.0397 263.43 27.2034 262.169 27.2009C260.822 27.2026 259.482 27.0091 258.192 26.6266C256.934 26.2501 255.746 25.6782 254.673 24.9327C253.214 23.9393 252.02 22.6171 251.193 21.0776C250.38 19.543 249.963 17.8367 249.98 16.1079C249.969 14.6194 250.272 13.1447 250.869 11.7759C251.474 10.4188 252.361 9.20028 253.474 8.19827C254.631 7.16204 255.981 6.35535 257.451 5.82293C258.976 5.27044 260.589 4.99178 262.214 5.00033C263.495 4.99157 264.772 5.15535 266.007 5.48708C267.222 5.81194 268.383 6.30357 269.457 6.94733L268.856 12.2724L268.841 12.287ZM240.285 26.5049V5.70612H245.918V26.5049H240.285ZM218.993 26.5049V5.70612H225.058C226.579 5.67681 228.1 5.79584 229.597 6.06144C230.604 6.26435 231.565 6.64716 232.431 7.1907C233.271 7.70401 233.972 8.40874 234.474 9.24478C234.95 10.03 235.2 10.9262 235.2 11.8391C235.221 13.0707 234.824 14.2743 234.071 15.261C233.227 16.3155 232.097 17.1166 230.81 17.573L237.979 26.5049H231.551L225.257 18.3372H224.457V26.5049H218.993ZM225.381 9.46868H224.457V15.261H225.645C227.067 15.261 228.15 15.0079 228.896 14.5017C229.26 14.2631 229.554 13.9365 229.751 13.5535C229.948 13.1706 230.041 12.7444 230.02 12.3162C230.053 11.8941 229.97 11.4709 229.778 11.0914C229.587 10.7118 229.294 10.39 228.931 10.1599C228.205 9.71206 227.022 9.49302 225.381 9.49302V9.46868ZM200.028 26.5049V5.70612H214.559V9.99437H205.506V13.7569H213.266V18.0209H205.506V22.1241H214.683V26.5049H200.028ZM168.653 26.5049L173.55 5.0198H173.953L182.867 18.5806L191.253 5.02954H191.676L196.612 26.5049H191.258L189.27 17.0036L182.941 27.2642H182.568L175.758 16.8673L173.689 26.5049H168.653ZM122.052 22.1534C122.585 22.3676 123.133 22.5433 123.693 22.679C124.123 22.7905 124.565 22.851 125.01 22.8591C126.134 22.8591 126.924 22.5379 127.401 21.8856C127.879 21.2334 128.117 20.1431 128.117 18.5952V5.70612H133.785V19.7829C133.785 22.1826 133.084 24.0225 131.682 25.288C130.28 26.5536 128.261 27.1912 125.617 27.1912C125.118 27.1913 124.62 27.162 124.125 27.1036C123.609 27.0432 123.096 26.9571 122.589 26.8456L122.052 22.1631V22.1534ZM98.9156 26.5049V5.02954H99.4575L114.143 17.1983V5.70612H119.333V27.3032H118.836L104.111 15.1636V26.5049H98.9156ZM78.6673 26.5049H73L85.0207 5.049H85.3786L97.1458 26.5049H91.2547L84.966 14.7548L78.6673 26.5049ZM149.404 26.5049H143.742L155.763 5.049H156.126L167.883 26.5049H161.987L155.698 14.745L149.404 26.5049ZM276.522 26.5049H270.859L282.88 5.049H283.243L295 26.5049H289.109L282.82 14.745L276.522 26.5049Z" fill="#0339D9"/>
<path fill-rule="evenodd" clip-rule="evenodd" d="M28.9617 0.154831H19.2041L24.8163 13.2111C25.485 14.76 27.2251 15.9745 28.5662 15.9745H35.8861C37.2272 15.9745 37.6658 14.7706 37.015 13.2111L32.7259 2.91816C32.0716 1.35873 30.3207 0.154831 28.976 0.154831H28.9617Z" fill="#07038C"/>
<path fill-rule="evenodd" clip-rule="evenodd" d="M19.3421 0.154831H29.0996L16.394 27.496C15.6749 29.0202 13.9851 30.2593 12.6441 30.2593H5.32414C3.9831 30.2593 3.48696 29.0237 4.19522 27.496L15.5922 2.91816C16.3113 1.39041 18.001 0.154831 19.3421 0.154831Z" fill="#0339D9"/>
<path fill-rule="evenodd" clip-rule="evenodd" d="M33.332 26.1935C51.6679 25.6796 66.4588 23.0993 66.3797 20.4345C66.3006 17.7698 51.3766 16.0202 33.048 16.5342C14.7193 17.0481 -0.0787802 19.6284 0.000315603 22.2967C0.0299254 22.4888 0.104361 22.6716 0.217844 22.8309C0.331327 22.9903 0.480799 23.1219 0.654651 23.2155C0.537537 23.0849 0.466886 22.9206 0.453317 22.7473C0.385007 20.336 14.5971 17.981 32.1959 17.4881C49.7947 16.9953 64.1183 18.5442 64.1938 20.959C64.2693 23.3739 50.2981 25.6831 32.915 26.2041H33.3356L33.332 26.1935Z" fill="#FFD700"/>
<path fill-rule="evenodd" clip-rule="evenodd" d="M34.2112 30.3931H43.9687L40.1074 20.8675C39.4711 19.301 37.6986 18.1042 36.3576 18.1042H29.0376C27.6966 18.1042 27.24 19.3081 27.9087 20.8675L30.4613 27.6297C31.0617 29.2138 32.8702 30.3931 34.2112 30.3931Z" fill="#07038C"/>
<path fill-rule="evenodd" clip-rule="evenodd" d="M43.7097 30.3861H33.9521L47.1072 2.76333C47.8263 1.24262 49.5125 0 50.8571 0H58.1735C59.5181 0 60.0286 1.24262 59.306 2.76333L47.4668 27.6227C46.7477 29.1434 45.0579 30.3861 43.7169 30.3861H43.7097Z" fill="#0339D9"/>
</svg>
