<svg width="19" height="25" viewBox="0 0 19 25" fill="none" xmlns="http://www.w3.org/2000/svg">
<path d="M9.50004 0C4.29678 0 0.0636139 4.23317 0.0636139 9.43635C0.0636139 11.5872 1.57622 14.7742 4.55947 18.9087C6.73729 21.927 8.94679 24.386 8.96881 24.4105L9.49997 25L10.0311 24.4105C10.0532 24.386 12.2626 21.9271 14.4405 18.9087C17.4237 14.7742 18.9363 11.5872 18.9363 9.43635C18.9364 4.23317 14.7032 0 9.50004 0ZM9.49997 22.8519C6.8504 19.7995 1.49364 12.9103 1.49364 9.43635C1.49357 5.02165 5.08526 1.42996 9.50004 1.42996C13.9148 1.42996 17.5064 5.02165 17.5064 9.43635C17.5064 12.9082 12.1495 19.7988 9.49997 22.8519Z" fill="black"/>
<path d="M9.50004 12.9896C11.4624 12.9896 13.0532 11.3988 13.0532 9.43646C13.0532 7.4741 11.4624 5.8833 9.50004 5.8833C7.53769 5.8833 5.94688 7.4741 5.94688 9.43646C5.94688 11.3988 7.53769 12.9896 9.50004 12.9896Z" fill="black"/>
</svg>
