<svg width="411" height="328" viewBox="0 0 411 328" fill="none" xmlns="http://www.w3.org/2000/svg">
<path d="M23.5 283.12L0 257.53L4.5 279.853L23.5 283.12Z" fill="#312E4F"/>
<path d="M149 327.765V313.609L138.5 320.687L149 327.765Z" fill="#312E4F"/>
<path d="M60.5 69.691L42.5 74.5911L50.5 62.613L60.5 69.691Z" fill="#312E4F"/>
<path d="M156.5 168.783V166.061H159V168.783H156.5Z" fill="#312E4F"/>
<path d="M267 25.0452V11.4337L279 16.3338L267 25.0452Z" fill="#312E4F"/>
<path d="M299.5 203.084V190.017L290 197.639L299.5 203.084Z" fill="#312E4F"/>
<path d="M360 132.848L365.5 118.148L350 122.504L360 132.848Z" fill="#312E4F"/>
<path d="M362.5 260.797H353L360 252.085L362.5 260.797Z" fill="#312E4F"/>
<path d="M410.5 182.939L399.5 194.372L396.5 179.128L410.5 182.939Z" fill="#312E4F"/>
<path d="M399 322.085L385 326.985V306.84L399 322.085Z" fill="#312E4F"/>
<path d="M410 16.3338V0L398 6.53353L410 16.3338Z" fill="#312E4F"/>
</svg>
