<svg width="428" height="656" viewBox="0 0 428 656" fill="none" xmlns="http://www.w3.org/2000/svg">
<path d="M23.5 274.023L0 249.256L4.5 270.862L23.5 274.023Z" fill="#312E4F" fill-opacity="0.44"/>
<path d="M149 317.235V303.534L138.5 310.384L149 317.235Z" fill="#312E4F" fill-opacity="0.44"/>
<path d="M45.5 402.604L30 407.873L36.5 396.807L45.5 402.604Z" fill="#312E4F" fill-opacity="0.44"/>
<path d="M136.5 487.972V497.458L129.5 491.134L136.5 487.972Z" fill="#312E4F" fill-opacity="0.44"/>
<path d="M135.5 655.021V639.739L123.5 646.063L135.5 655.021Z" fill="#312E4F" fill-opacity="0.44"/>
<path d="M214 643.428V635.523L207 639.739L214 643.428Z" fill="#312E4F" fill-opacity="0.44"/>
<path d="M250.5 475.852H238.5L243 461.624L250.5 475.852Z" fill="#312E4F" fill-opacity="0.44"/>
<path d="M60.5 67.4519L42.5 72.1946L50.5 60.6013L60.5 67.4519Z" fill="#312E4F" fill-opacity="0.44"/>
<path d="M156.5 163.36V160.725H159V163.36H156.5Z" fill="#312E4F" fill-opacity="0.44"/>
<path d="M267 24.2405V11.0663L279 15.809L267 24.2405Z" fill="#312E4F" fill-opacity="0.44"/>
<path d="M299.5 196.559V183.912L290 191.289L299.5 196.559Z" fill="#312E4F" fill-opacity="0.44"/>
<path d="M360 128.58L365.5 114.352L350 118.568L360 128.58Z" fill="#312E4F" fill-opacity="0.44"/>
<path d="M362.5 252.418H353L360 243.986L362.5 252.418Z" fill="#312E4F" fill-opacity="0.44"/>
<path d="M410.5 177.061L399.5 188.128L396.5 173.372L410.5 177.061Z" fill="#312E4F" fill-opacity="0.44"/>
<path d="M429 243.986L415 248.729V229.231L429 243.986Z" fill="#312E4F" fill-opacity="0.44"/>
<path d="M410 15.809V0L398 6.32362L410 15.809Z" fill="#312E4F" fill-opacity="0.44"/>
<path d="M394 514.321L382.5 509.578V522.752L394 514.321Z" fill="#312E4F" fill-opacity="0.44"/>
</svg>
