<svg width="1292" height="497" viewBox="0 0 1292 497" fill="none" xmlns="http://www.w3.org/2000/svg">
<path d="M23.5 197.464L0 179.616L4.5 195.185L23.5 197.464Z" fill="#312E4F" fill-opacity="0.44"/>
<path d="M149 228.602V218.729L138.5 223.665L149 228.602Z" fill="#312E4F" fill-opacity="0.44"/>
<path d="M45.5 290.12L30 293.917L36.5 285.942L45.5 290.12Z" fill="#312E4F" fill-opacity="0.44"/>
<path d="M136.5 351.637V358.472L129.5 353.915L136.5 351.637Z" fill="#312E4F" fill-opacity="0.44"/>
<path d="M135.5 472.014V461.001L123.5 465.558L135.5 472.014Z" fill="#312E4F" fill-opacity="0.44"/>
<path d="M214 463.66V457.964L207 461.001L214 463.66Z" fill="#312E4F" fill-opacity="0.44"/>
<path d="M250.5 342.903H238.5L243 332.65L250.5 342.903Z" fill="#312E4F" fill-opacity="0.44"/>
<path d="M60.5 48.6064L42.5 52.0241L50.5 43.6698L60.5 48.6064Z" fill="#312E4F" fill-opacity="0.44"/>
<path d="M156.5 117.719V115.82H159V117.719H156.5Z" fill="#312E4F" fill-opacity="0.44"/>
<path d="M267 17.4679V7.97449L279 11.3921L267 17.4679Z" fill="#312E4F" fill-opacity="0.44"/>
<path d="M299.5 141.642V132.528L290 137.845L299.5 141.642Z" fill="#312E4F" fill-opacity="0.44"/>
<path d="M360 92.656L365.5 82.4031L350 85.441L360 92.656Z" fill="#312E4F" fill-opacity="0.44"/>
<path d="M362.5 181.894H353L360 175.819L362.5 181.894Z" fill="#312E4F" fill-opacity="0.44"/>
<path d="M410.5 127.592L399.5 135.566L396.5 124.934L410.5 127.592Z" fill="#312E4F" fill-opacity="0.44"/>
<path d="M429 175.819L415 179.236V165.186L429 175.819Z" fill="#312E4F" fill-opacity="0.44"/>
<path d="M471.5 99.871L466 105.947H477.5L471.5 99.871Z" fill="#312E4F" fill-opacity="0.44"/>
<path d="M445 43.6698L442 41.0117L439 45.5685L445 43.6698Z" fill="#312E4F" fill-opacity="0.44"/>
<path d="M410 11.3921V0L398 4.55685L410 11.3921Z" fill="#312E4F" fill-opacity="0.44"/>
<path d="M578 123.035V116.2L572 119.617L578 123.035Z" fill="#312E4F" fill-opacity="0.44"/>
<path d="M607 84.3018V88.4789L601 86.5802L607 84.3018Z" fill="#312E4F" fill-opacity="0.44"/>
<path d="M630 16.3287L623 9.49344V16.3287H630Z" fill="#312E4F" fill-opacity="0.44"/>
<path d="M658.5 113.162L649 116.2L651.5 108.605L658.5 113.162Z" fill="#312E4F" fill-opacity="0.44"/>
<path d="M696 108.605L693 104.428L689.5 108.605H696Z" fill="#312E4F" fill-opacity="0.44"/>
<path d="M736.5 119.617H731.5L730 118.858L731.5 114.681L736.5 119.617Z" fill="#312E4F" fill-opacity="0.44"/>
<path d="M833 122.276L823.5 114.681V122.276H833Z" fill="#312E4F" fill-opacity="0.44"/>
<path d="M912 34.1764L910 25.8222H912H920.5L912 34.1764Z" fill="#312E4F" fill-opacity="0.44"/>
<path d="M984.5 137.465V126.453L1071 122.276L984.5 137.465Z" fill="#312E4F" fill-opacity="0.44"/>
<path d="M999.5 200.122V190.628L1013.5 193.666L999.5 200.122Z" fill="#312E4F" fill-opacity="0.44"/>
<path d="M1099.5 260.12V249.108L1087.5 254.424L1099.5 260.12Z" fill="#312E4F" fill-opacity="0.44"/>
<path d="M1195.5 215.691L1191.5 210.375H1201L1195.5 215.691Z" fill="#312E4F" fill-opacity="0.44"/>
<path d="M1167.5 122.276V114.681H1181L1167.5 122.276Z" fill="#312E4F" fill-opacity="0.44"/>
<path d="M1278 369.864V360.371H1292L1278 369.864Z" fill="#312E4F" fill-opacity="0.44"/>
<path d="M1189.5 475.052L1178 481.887L1189.5 486.444V475.052Z" fill="#312E4F" fill-opacity="0.44"/>
<path d="M1087 400.623V391.889L1078 395.687L1087 400.623Z" fill="#312E4F" fill-opacity="0.44"/>
<path d="M731.5 202.78V193.666L720.5 197.464L731.5 202.78Z" fill="#312E4F" fill-opacity="0.44"/>
<path d="M561.5 210.754L539 189.109L546.5 202.78L561.5 210.754Z" fill="#312E4F" fill-opacity="0.44"/>
<path d="M394 370.624L382.5 367.206V376.7L394 370.624Z" fill="#312E4F" fill-opacity="0.44"/>
<path d="M469.5 468.596L460.5 471.634V464.799L469.5 468.596Z" fill="#312E4F" fill-opacity="0.44"/>
<path d="M511 315.942V308.347H498.5L511 315.942Z" fill="#312E4F" fill-opacity="0.44"/>
<path d="M634.5 521V509.988L621 514.544L634.5 521Z" fill="#312E4F" fill-opacity="0.44"/>
<path d="M712.5 512.646V507.709L706.5 509.988L712.5 512.646Z" fill="#312E4F" fill-opacity="0.44"/>
<path d="M635.5 401.003L627 403.281L635.5 408.598V401.003Z" fill="#312E4F" fill-opacity="0.44"/>
<path d="M707.5 417.332L705 415.053L701 418.851L707.5 417.332Z" fill="#312E4F" fill-opacity="0.44"/>
<path d="M911.5 352.397H894L902 337.207L911.5 352.397Z" fill="#312E4F" fill-opacity="0.44"/>
<path d="M985.5 328.853H967L979 333.789L985.5 328.853Z" fill="#312E4F" fill-opacity="0.44"/>
<path d="M796.5 358.093L788 364.168L796.5 367.586V358.093Z" fill="#312E4F" fill-opacity="0.44"/>
<path d="M869 403.281L857 401.003L863 393.408L869 403.281Z" fill="#312E4F" fill-opacity="0.44"/>
<path d="M888.5 431.002V418.851L891.5 421.129L902 427.205L888.5 431.002Z" fill="#312E4F" fill-opacity="0.44"/>
<path d="M872.5 501.633L869 490.621L884 495.937L872.5 501.633Z" fill="#312E4F" fill-opacity="0.44"/>
</svg>
