<svg width="12" height="16" viewBox="0 0 12 16" fill="none" xmlns="http://www.w3.org/2000/svg">
<path fill-rule="evenodd" clip-rule="evenodd" d="M1.75747 2.18961C2.88267 1.00311 4.40878 0.336548 6.00006 0.336548C7.59135 0.336548 9.11745 1.00311 10.2427 2.18961C11.3679 3.3761 12 4.98533 12 6.66329C12 8.34125 11.3679 9.95048 10.2427 11.137L6.00006 15.6107L1.75747 11.137C1.20029 10.5495 0.758301 9.85205 0.456753 9.08445C0.155205 8.31686 0 7.49414 0 6.66329C0 5.83244 0.155205 5.00972 0.456753 4.24212C0.758301 3.47453 1.20029 2.77708 1.75747 2.18961ZM6.00006 8.47084C6.45469 8.47084 6.8907 8.2804 7.21217 7.94142C7.53364 7.60244 7.71424 7.14268 7.71424 6.66329C7.71424 6.1839 7.53364 5.72414 7.21217 5.38516C6.8907 5.04618 6.45469 4.85574 6.00006 4.85574C5.54543 4.85574 5.10943 5.04618 4.78796 5.38516C4.46648 5.72414 4.28588 6.1839 4.28588 6.66329C4.28588 7.14268 4.46648 7.60244 4.78796 7.94142C5.10943 8.2804 5.54543 8.47084 6.00006 8.47084Z" fill="white"/>
</svg>
