<svg width="31" height="31" viewBox="0 0 31 31" fill="none" xmlns="http://www.w3.org/2000/svg">
<rect width="31" height="31" rx="15.5" fill="black" fill-opacity="0.1"/>
<path d="M15.5032 12.1311C13.6399 12.1311 12.137 13.634 12.137 15.4973C12.137 17.3606 13.6399 18.8635 15.5032 18.8635C17.3665 18.8635 18.8694 17.3606 18.8694 15.4973C18.8694 13.634 17.3665 12.1311 15.5032 12.1311ZM15.5032 17.6858C14.2991 17.6858 13.3147 16.7043 13.3147 15.4973C13.3147 14.2903 14.2961 13.3088 15.5032 13.3088C16.7102 13.3088 17.6917 14.2903 17.6917 15.4973C17.6917 16.7043 16.7073 17.6858 15.5032 17.6858ZM19.7922 11.9934C19.7922 12.4299 19.4407 12.7786 19.0071 12.7786C18.5706 12.7786 18.2219 12.427 18.2219 11.9934C18.2219 11.5598 18.5735 11.2083 19.0071 11.2083C19.4407 11.2083 19.7922 11.5598 19.7922 11.9934ZM22.0217 12.7903C21.9719 11.7385 21.7317 10.8069 20.9612 10.0393C20.1936 9.27173 19.262 9.03149 18.2102 8.97876C17.1262 8.91724 13.8772 8.91724 12.7932 8.97876C11.7444 9.02856 10.8127 9.2688 10.0422 10.0364C9.27173 10.804 9.03442 11.7356 8.98169 12.7874C8.92017 13.8713 8.92017 17.1204 8.98169 18.2043C9.03149 19.2561 9.27173 20.1877 10.0422 20.9553C10.8127 21.7229 11.7415 21.9631 12.7932 22.0159C13.8772 22.0774 17.1262 22.0774 18.2102 22.0159C19.262 21.9661 20.1936 21.7258 20.9612 20.9553C21.7288 20.1877 21.969 19.2561 22.0217 18.2043C22.0833 17.1204 22.0833 13.8743 22.0217 12.7903ZM20.6213 19.3674C20.3928 19.9417 19.9504 20.384 19.3733 20.6155C18.509 20.9583 16.4583 20.8792 15.5032 20.8792C14.5481 20.8792 12.4944 20.9553 11.6331 20.6155C11.0588 20.387 10.6165 19.9446 10.385 19.3674C10.0422 18.5032 10.1213 16.4524 10.1213 15.4973C10.1213 14.5422 10.0452 12.4885 10.385 11.6272C10.6135 11.053 11.0559 10.6106 11.6331 10.3792C12.4973 10.0364 14.5481 10.1155 15.5032 10.1155C16.4583 10.1155 18.512 10.0393 19.3733 10.3792C19.9475 10.6077 20.3899 11.05 20.6213 11.6272C20.9641 12.4915 20.885 14.5422 20.885 15.4973C20.885 16.4524 20.9641 18.5061 20.6213 19.3674Z" fill="#323131"/>
</svg>
