<svg width="31" height="31" viewBox="0 0 31 31" fill="none" xmlns="http://www.w3.org/2000/svg">
<rect width="31" height="31" rx="15.5" fill="black" fill-opacity="0.1"/>
<path d="M21.125 8.9375H9.87207C9.35645 8.9375 8.9375 9.3623 8.9375 9.88379V21.1162C8.9375 21.6377 9.35645 22.0625 9.87207 22.0625H21.125C21.6406 22.0625 22.0625 21.6377 22.0625 21.1162V9.88379C22.0625 9.3623 21.6406 8.9375 21.125 8.9375ZM12.9043 20.1875H10.959V13.9238H12.9072V20.1875H12.9043ZM11.9316 13.0684C11.3076 13.0684 10.8037 12.5615 10.8037 11.9404C10.8037 11.3193 11.3076 10.8125 11.9316 10.8125C12.5527 10.8125 13.0596 11.3193 13.0596 11.9404C13.0596 12.5645 12.5557 13.0684 11.9316 13.0684ZM20.1963 20.1875H18.251V17.1406C18.251 16.4141 18.2363 15.4795 17.2402 15.4795C16.2266 15.4795 16.0713 16.2705 16.0713 17.0879V20.1875H14.126V13.9238H15.9922V14.7793H16.0186C16.2793 14.2871 16.915 13.7686 17.8613 13.7686C19.8301 13.7686 20.1963 15.0664 20.1963 16.7539V20.1875Z" fill="#323131"/>
</svg>
