<svg width="31" height="31" viewBox="0 0 31 31" fill="none" xmlns="http://www.w3.org/2000/svg">
<rect width="31" height="31" rx="15.5" fill="black" fill-opacity="0.1"/>
<path d="M10.8125 8.9375C9.77832 8.9375 8.9375 9.77832 8.9375 10.8125V20.1875C8.9375 21.2217 9.77832 22.0625 10.8125 22.0625H20.1875C21.2217 22.0625 22.0625 21.2217 22.0625 20.1875V10.8125C22.0625 9.77832 21.2217 8.9375 20.1875 8.9375H10.8125ZM19.5166 11.3984L16.4756 14.873L20.0527 19.6016H17.252L15.0605 16.7334L12.5498 19.6016H11.1582L14.4102 15.8838L10.9795 11.3984H13.8506L15.834 14.0205L18.125 11.3984H19.5166ZM18.4092 18.7695L13.4316 12.1865H12.6025L17.6357 18.7695H18.4062H18.4092Z" fill="#323131"/>
</svg>
