<?xml version="1.0" encoding="utf-8"?>
<!-- Generator: Adobe Illustrator 22.1.0, SVG Export Plug-In . SVG Version: 6.00 Build 0)  -->
<svg version="1.1" id="Layer_1" xmlns="http://www.w3.org/2000/svg" xmlns:xlink="http://www.w3.org/1999/xlink" x="0px" y="0px"
	 viewBox="0 0 5856.4 1431.7" style="enable-background:new 0 0 5856.4 1431.7;" xml:space="preserve">
<style type="text/css">
	.st0{fill:url(#SVGID_1_);}
	.st1{fill:url(#SVGID_2_);}
	.st2{fill:#1288C1;}
	.st3{fill:#FFFFFF;}
	.st4{fill:#1E88C2;}
</style>
<g>
	
		<linearGradient id="SVGID_1_" gradientUnits="userSpaceOnUse" x1="1715.3427" y1="857.8431" x2="1718.1478" y2="536.6548" gradientTransform="matrix(1 0 0 -1 0 1432)">
		<stop  offset="0.2019" style="stop-color:#8BD4F6"/>
		<stop  offset="0.8596" style="stop-color:#1788C1"/>
	</linearGradient>
	<path class="st0" d="M1911.4,646.2h-140.6c-23.1-47.7-65.2-71.5-116.9-71.5c-83.5,0-140.7,62-140.7,160.6s57.2,160.6,140.7,160.6
		c51.7,0,93.8-23.8,116.9-71.5h140.5c5.9-28.9,9-58.8,9-89.4C1920.2,704.5,1917.1,674.9,1911.4,646.2z"/>
	<g>
		
			<linearGradient id="SVGID_2_" gradientUnits="userSpaceOnUse" x1="945.434" y1="1414.3846" x2="955.6439" y2="245.3642" gradientTransform="matrix(1 0 0 -1 0 1432)">
			<stop  offset="0.2019" style="stop-color:#8BD4F6"/>
			<stop  offset="0.8596" style="stop-color:#1788C1"/>
		</linearGradient>
		<path class="st1" d="M1848.3,957.9c-3.7,0.8-7.6,1.3-11.8,1.3c-0.4,0-0.8-0.1-1.3-0.1c-46.9,38.5-108.6,59.9-179.8,59.9
			c-164.6,0-280.6-116.9-280.6-283.8s116.1-284.6,280.6-284.6c78.9,0,146.1,26.6,194.4,73.5c1.9-1.5,4.1-2.8,6.3-3.9
			c2-1.6,4.1-3.1,6.3-4.5c-76.7-136-222.2-228-389.5-228c-130.7,0-248.3,56.1-330,145.5C1125.7,202,932.9,19.8,697.3,19.8
			c-246.9,0-447,200.1-447,447c0,12.5,0.6,24.8,1.6,37.1c-124.7,54.2-212,178.4-212,323c0,194.5,157.6,352.1,352.1,352.1
			c6.8,0,13.6-0.3,20.3-0.7v-190H224.8c-7.3,17.5-24.5,29.9-44.6,29.9c-26.6,0-48.3-21.7-48.3-48.3s21.7-48.3,48.3-48.3
			c20.6,0,38.2,13,45.1,31.2h204.8c9.8,0,17.7,7.9,17.7,17.7v203.8c16-2.5,31.6-6.1,46.7-10.7V781.3h-66.3c-1.3,0-2.5-0.2-3.8-0.4
			c-7.1,17.8-24.5,30.4-44.8,30.4c-26.6,0-48.3-21.7-48.3-48.3s21.7-48.3,48.3-48.3c20.7,0,38.4,13.1,45.2,31.5
			c1.1-0.2,2.2-0.3,3.4-0.3h84.1c9.8,0,17.7,7.9,17.7,17.7v387.1c16.2-6.9,31.9-14.9,46.7-24.1V784.7c-17-7.5-28.9-24.5-28.9-44.2
			c0-26.6,21.7-48.3,48.3-48.3s48.3,21.7,48.3,48.3c0,21-13.5,38.8-32.2,45.5v315.5c18.3-14.7,35.2-31.2,50.2-49.3v-105
			c0-9.8,7.9-17.7,17.7-17.7h98v-46c-19.3-6.3-33.3-24.5-33.3-45.9c0-26.6,21.7-48.3,48.3-48.3s48.3,21.7,48.3,48.3
			c0,19.3-11.4,36-27.9,43.7v65.9c0,9.8-7.9,17.7-17.7,17.7h-98v36.1c2-3.4,4-6.8,5.9-10.3c36,93.3,126.5,159.5,232.5,159.5
			c87,0,163.5-44.6,208.1-112.1c81.7,88.5,198.7,144,328.7,144c165.1,0,309.1-89.5,386.6-222.6c-0.1-0.1-0.1-0.2-0.2-0.3
			C1855.5,959.1,1851.8,958.7,1848.3,957.9z"/>
		<path class="st2" d="M613.8,740.5c0-9.7-7.9-17.6-17.6-17.6c-9.7,0-17.6,7.9-17.6,17.6c0,9.7,7.9,17.6,17.6,17.6
			C605.9,758.1,613.8,750.2,613.8,740.5z"/>
		<path class="st2" d="M810.9,837.5c0-9.7-7.9-17.6-17.6-17.6c-9.7,0-17.6,7.9-17.6,17.6c0,9.7,7.9,17.6,17.6,17.6
			C802.9,855.2,810.9,847.3,810.9,837.5z"/>
		<path class="st2" d="M362.1,763c0,9.7,7.9,17.6,17.6,17.6s17.6-7.9,17.6-17.6c0-9.7-7.9-17.6-17.6-17.6S362.1,753.3,362.1,763z"/>
		<path class="st2" d="M162.6,969.9c0,9.7,7.9,17.6,17.6,17.6s17.6-7.9,17.6-17.6c0-9.7-7.9-17.6-17.6-17.6S162.6,960.2,162.6,969.9
			z"/>
	</g>
	<path class="st3" d="M2140.6,988.9h-150.7c-1,0-1.9-0.8-1.9-1.9V836.4c0-1,0.8-1.9,1.9-1.9h150.7c1,0,1.9,0.8,1.9,1.9v150.7
		C2142.4,988.1,2141.6,988.9,2140.6,988.9z"/>
	<path class="st3" d="M2232,809.2h-88.4c-0.7,0-1.2-0.5-1.2-1.2v-88.4c0-0.7,0.5-1.2,1.2-1.2h88.4c0.7,0,1.2,0.5,1.2,1.2V808
		C2233.3,808.7,2232.7,809.2,2232,809.2z"/>
	<path class="st3" d="M2130.7,705.8h-116.1c-0.7,0-1.2-0.5-1.2-1.2V588.5c0-0.7,0.5-1.2,1.2-1.2h116.1c0.7,0,1.2,0.5,1.2,1.2v116.1
		C2131.9,705.3,2131.3,705.8,2130.7,705.8z"/>
	<path class="st3" d="M2198.7,559.5h-65.6c-0.7,0-1.2-0.5-1.2-1.2v-65.6c0-0.7,0.5-1.2,1.2-1.2h65.6c0.7,0,1.2,0.5,1.2,1.2v65.6
		C2199.9,559,2199.4,559.5,2198.7,559.5z"/>
	<path class="st3" d="M2092.6,474.7H2021c-0.7,0-1.2-0.5-1.2-1.2v-71.6c0-0.7,0.5-1.2,1.2-1.2h71.6c0.7,0,1.2,0.5,1.2,1.2v71.6
		C2093.8,474.1,2093.3,474.7,2092.6,474.7z"/>
	<path class="st3" d="M2176.1,359.5h-60.7c-0.7,0-1.2-0.5-1.2-1.2v-60.7c0-0.7,0.5-1.2,1.2-1.2h60.7c0.7,0,1.2,0.5,1.2,1.2v60.6
		C2177.3,358.9,2176.8,359.5,2176.1,359.5z"/>
	<path class="st3" d="M2064.4,234.4h-43.8c-0.4,0-0.8-0.4-0.8-0.8v-43.9c0-0.4,0.4-0.8,0.8-0.8h43.8c0.4,0,0.8,0.4,0.8,0.8v43.9
		C2065.2,234,2064.9,234.4,2064.4,234.4z"/>
	<g>
		<path class="st3" d="M2533.1,966.4c-128.2,0-225.2-89.8-225.2-229.2c0-140.2,100.2-229.2,228.4-229.2s228.4,88.9,228.4,229.2
			C2764.7,876.6,2662.1,966.4,2533.1,966.4z M2533.1,868.6c59.3,0,116.2-43.3,116.2-131.4c0-88.9-55.3-131.4-114.6-131.4
			s-113,42.5-113,131.4C2421.7,825.3,2473,868.6,2533.1,868.6z"/>
		<path class="st3" d="M3266.3,959.2h-113v-56.1c-28,37.7-76.9,61.7-132.2,61.7c-103.4,0-177.9-67.3-177.9-189.1V515.2h112.2v244.4
			c0,71.3,39.3,109.8,98.6,109.8c60.9,0,99.4-38.5,99.4-109.8V515.2h113v444H3266.3z"/>
		<path class="st3" d="M3551.6,508c58.5,0,114.6,27.2,145,68.9V366.2h113.8v593h-113.8v-65.7c-26.4,40.9-76.1,72.9-145.8,72.9
			c-113,0-202.7-92.2-202.7-230.8S3437.8,508,3551.6,508z M3579.7,606.6c-60.1,0-117,44.9-117,129s56.9,132.2,117,132.2
			c61.7,0,117.8-46.5,117.8-130.6S3641.4,606.6,3579.7,606.6z"/>
	</g>
	<g>
		<path class="st4" d="M3915.5,406.9h412.3v91H4178V969h-112.7V497.9h-149.8V406.9z"/>
		<path class="st4" d="M4604.8,976.2c-129.6,0-223.9-90.2-223.9-230.3c0-140.9,91.8-230.3,223.9-230.3
			c128.8,0,219.8,87.8,219.8,220.6c0,14.5-0.8,29-3.2,43.5h-326.1c5.6,66,50.7,103.1,107.1,103.1c48.3,0,74.9-24.2,89.4-53.9h121.6
			C4789.2,911,4715.1,976.2,4604.8,976.2z M4496.1,704h211.8c-1.6-58.8-48.3-95.8-106.3-95.8C4547.6,608.2,4504.9,642.8,4496.1,704z
			"/>
		<path class="st4" d="M5098.4,515.6c111.1,0,186,58,210.2,157.8H5187c-12.9-37.8-42.7-62-89.4-62c-62.8,0-104.7,47.5-104.7,134.5
			s41.9,133.7,104.7,133.7c46.7,0,75.7-20.9,89.4-61.2h121.6c-24.2,95-99,157.8-210.2,157.8c-128.8,0-220.6-90.2-220.6-230.3
			C4877.7,605.8,4969.5,515.6,5098.4,515.6z"/>
		<path class="st4" d="M5391.4,373.1h112.7v205.3c29-37.9,78.9-62,138.5-62c100.7,0,173.9,67.6,173.9,190.8v261.7h-112.7V722.6
			c0-71.7-39.5-110.3-99-110.3c-61.2,0-100.7,38.7-100.7,110.3V969h-112.7L5391.4,373.1L5391.4,373.1z"/>
	</g>
	<g>
		<path class="st3" d="M4430.1,1411.9c-45.9,0-78.2-23-81.5-60h26.7c2.2,22.2,21.5,38.2,54.5,38.2c28.9,0,45.2-15.6,45.2-34.8
			c0-50-121.5-20.7-121.5-96.7c0-30,28.5-54.8,71.1-54.8c43.3,0,71.9,23,74.1,61.9h-25.9c-1.5-22.6-18.2-39.6-48.9-39.6
			c-27,0-44.1,14.4-44.1,32.2c0,54.8,119.7,25.6,120.8,97.1C4500.5,1387.8,4471.9,1411.9,4430.1,1411.9z"/>
		<path class="st3" d="M4636.8,1411.9c-57.4,0-99.3-40-99.3-104.1c0-64.5,41.1-104.1,99.3-104.1c59.3,0,95.6,42.2,95.6,93.7
			c0,8.1,0,13.3-0.7,20.4h-167.8c2.2,47.4,35.2,72.2,73,72.2c34.5,0,57.8-18.2,65.2-45.2h27.4
			C4720.1,1383,4687.6,1411.9,4636.8,1411.9z M4563.8,1296.7h142.3c1.1-47-33-70.8-70.4-70.8
			C4599,1225.9,4566.8,1249.7,4563.8,1296.7z"/>
		<path class="st3" d="M4805.7,1408.9h-25.9v-202.3h25.9v35.9c11.1-24.8,34.5-39.6,69.3-39.6v27h-7c-33.7,0-62.2,15.2-62.2,65.9
			L4805.7,1408.9L4805.7,1408.9z"/>
		<path class="st3" d="M4917.6,1206.7l68.2,177.1l68.2-177.1h27.4l-81.1,202.3H4971l-81.1-202.3H4917.6z"/>
		<path class="st3" d="M5110.6,1149.3c0-11.1,8.5-18.9,18.9-18.9s18.9,7.8,18.9,18.9s-8.5,19.3-18.9,19.3
			C5119.2,1168.5,5110.6,1160.4,5110.6,1149.3z M5116.6,1206.7h25.9V1409h-25.9V1206.7z"/>
		<path class="st3" d="M5287.7,1203.7c50.8,0,83.7,27,93,68.9h-27.8c-6.7-28.9-31.1-46.7-65.2-46.7c-39.6,0-71.9,27-71.9,81.9
			s32.2,82.2,71.9,82.2c34.1,0,58.2-17.4,65.2-47h27.8c-9.3,40.4-42.2,68.9-93,68.9c-57.1,0-98.2-40-98.2-104.1
			S5230.7,1203.7,5287.7,1203.7z"/>
		<path class="st3" d="M5515.9,1411.9c-57.4,0-99.3-40-99.3-104.1c0-64.5,41.1-104.1,99.3-104.1c59.3,0,95.6,42.2,95.6,93.7
			c0,8.1,0,13.3-0.7,20.4H5443c2.2,47.4,35.2,72.2,73,72.2c34.5,0,57.8-18.2,65.2-45.2h27.4
			C5599.3,1383,5566.7,1411.9,5515.9,1411.9z M5442.9,1296.7h142.3c1.1-47-33-70.8-70.4-70.8
			C5478.1,1225.9,5445.9,1249.7,5442.9,1296.7z"/>
		<path class="st3" d="M5728.6,1411.9c-45.9,0-78.2-23-81.5-60h26.7c2.2,22.2,21.5,38.2,54.5,38.2c28.9,0,45.2-15.6,45.2-34.8
			c0-50-121.5-20.7-121.5-96.7c0-30,28.5-54.8,71.1-54.8c43.3,0,71.9,23,74.1,61.9h-25.9c-1.5-22.6-18.1-39.6-48.9-39.6
			c-27,0-44.1,14.4-44.1,32.2c0,54.8,119.7,25.6,120.8,97.1C5798.9,1387.8,5770.4,1411.9,5728.6,1411.9z"/>
	</g>
</g>
</svg>
