<svg id="Layer_1" data-name="Layer 1" xmlns="http://www.w3.org/2000/svg" xmlns:xlink="http://www.w3.org/1999/xlink" viewBox="0 0 200 89.46"><defs><style>.cls-1{fill:url(#linear-gradient);}.cls-2{fill:url(#linear-gradient-2);}.cls-3{fill:url(#linear-gradient-3);}.cls-4{fill:url(#linear-gradient-4);}.cls-5{fill:url(#linear-gradient-5);}.cls-6{fill:url(#linear-gradient-6);}.cls-7{fill:url(#linear-gradient-7);}.cls-8{fill:url(#linear-gradient-8);}.cls-9{fill:url(#linear-gradient-9);}.cls-10{fill:url(#linear-gradient-10);}</style><linearGradient id="linear-gradient" x1="84.17" y1="-20.59" x2="40" y2="44.58" gradientTransform="translate(17.83 23.27) rotate(4.86)" gradientUnits="userSpaceOnUse"><stop offset="0.11" stop-color="#a3cd39"/><stop offset="0.88" stop-color="#4ba246"/></linearGradient><linearGradient id="linear-gradient-2" x1="50.27" y1="55.14" x2="19.67" y2="3.67" gradientTransform="translate(17.83 23.27) rotate(4.86)" gradientUnits="userSpaceOnUse"><stop offset="0.02" stop-color="#a3cd39"/><stop offset="1" stop-color="#4ba246"/></linearGradient><linearGradient id="linear-gradient-3" x1="119.76" y1="19.37" x2="76.8" y2="82.48" gradientTransform="matrix(1, 0, 0, 1, 0, 0)" xlink:href="#linear-gradient"/><linearGradient id="linear-gradient-4" x1="81.14" y1="67.56" x2="110.6" y2="67.56" gradientTransform="matrix(1, 0, 0, 1, 0, 0)" xlink:href="#linear-gradient-2"/><linearGradient id="linear-gradient-5" x1="131.08" y1="45.42" x2="107.2" y2="81.64" gradientTransform="matrix(1, 0, 0, 1, 0, 0)" xlink:href="#linear-gradient-2"/><linearGradient id="linear-gradient-6" x1="119.66" y1="53.17" x2="127.22" y2="40.95" gradientTransform="matrix(1, 0, 0, 1, 0, 0)" xlink:href="#linear-gradient"/><linearGradient id="linear-gradient-7" x1="120.26" y1="55.71" x2="141.3" y2="12.45" gradientTransform="matrix(1, 0, 0, 1, 0, 0)" xlink:href="#linear-gradient"/><linearGradient id="linear-gradient-8" x1="172.5" y1="44.6" x2="137.09" y2="66.23" gradientTransform="matrix(1, 0, 0, 1, 0, 0)" xlink:href="#linear-gradient-2"/><linearGradient id="linear-gradient-9" x1="101.29" y1="41" x2="87.17" y2="71.81" gradientTransform="matrix(1, 0, 0, 1, 0, 0)" xlink:href="#linear-gradient"/><linearGradient id="linear-gradient-10" x1="148.84" y1="55.81" x2="180.84" y2="73.73" gradientTransform="matrix(1, 0, 0, 1, 0, 0)" xlink:href="#linear-gradient"/></defs><path class="cls-1" d="M112.14,15.48s-6.94-1.23-24.37,28-18,28.34-24.46,31.16S52,61.64,52,61.64l22-34S86.8,2.78,112.14,15.48Z"/><path class="cls-2" d="M27.1,34.72S31.17,37,37.93,56.79,55.67,75.35,56.56,75.5c0,0,8.3,1,13.94-5.52,0,0-6.38,4.08-10.5-8.47S51.17,26.64,27.1,34.72Z"/><path class="cls-3" d="M103.34,36.41a98.39,98.39,0,0,0,6.56-9.29c.26-.43.43-.51.86-.34a9.52,9.52,0,0,1,4.69,3.58c.59,1,.51,2-.52,3.15a35.12,35.12,0,0,1-4.26,4,7.45,7.45,0,0,1-4.52,1.11,6.09,6.09,0,0,1-3-.77C102.83,37.52,102.83,37,103.34,36.41Z"/><path class="cls-4" d="M110.16,57.9l-.26-.26c-.26-.25-.43-.17-1,.6l-.26.34c-7.42,9.89-12.7,13-16.71,13.56a8.78,8.78,0,0,1-10.52-4.62,6.42,6.42,0,0,0,.46,4.79,9.9,9.9,0,0,0,3.07,3.32,9.45,9.45,0,0,0,5.2,2c6.39,0,16.37-11.69,19.95-17.66l.26-.42A1.13,1.13,0,0,0,110.16,57.9Z"/><path class="cls-5" d="M135.54,57.9l-.25-.26c-.26-.25-.43-.17-1,.6l-.26.34c-5.71,7.67-12.53,12.36-17,12.36a8.14,8.14,0,0,1-1.62-.17c2.56-5.88,9.55-16.54,14.58-23.87L115,49.2c-2.65,3.67-5,7-6.57,9.38-4.09,6.31-4.6,10.83-3.24,12.7,2.3,3.24,5.2,5.55,8.61,5.55,7.68,0,18.68-11.94,21.66-16.89l.26-.42A1.12,1.12,0,0,0,135.54,57.9Z"/><path class="cls-6" d="M139.9,42.21a4.28,4.28,0,0,1-.59,2,4.39,4.39,0,0,1-2.22,1c-1.79.43-4.35,1-7.16,1.62L115,49.2c-2.31.17-3.42-.25-3.76-1.11a9.72,9.72,0,0,1-.59-3c0-.6.42-.77,1.53-.94,2.22-.26,4.52-.51,7-.77L133.25,42c2.22-.17,4-.26,5.29-.34C139.65,41.7,139.9,41.78,139.9,42.21Z"/><path class="cls-7" d="M138.11,32.23c0,2.05-1.7,5-4.86,9.81L119.18,43.4a159.65,159.65,0,0,0,9.3-14.07c1.19-2.21,1.45-2.64,2-2.64a12.66,12.66,0,0,1,4.27,1.54C136.83,29.25,138.11,30.44,138.11,32.23Z"/><path class="cls-8" d="M157.3,44.34a9.39,9.39,0,0,0-5.29.34,35.57,35.57,0,0,0-15.86,11c-5,6-5.71,10.92-3.75,14.16a9.4,9.4,0,0,0,3.75,3.75c3.33,2.9,5.2,3,7.33,2,2.39-1,5.46-3.66,9-7.67a47.93,47.93,0,0,1,2.73-8.55c-4,5.2-8.54,8.85-12.79,10.68-.17-6.48,8.34-16,17.89-19.09a15.67,15.67,0,0,1,2.66-2.57A11.08,11.08,0,0,0,157.3,44.34Z"/><path class="cls-9" d="M103.34,53.12c-4.1,5.38-10.75,14.24-11.43,19-7,3-10.44-4.24-10.52-4.62h0c.59-2.35,2.24-5.2,5.06-8.93a115.14,115.14,0,0,0,9-13.22c1-1.87,1.27-2.13,2.38-1.79,2.3.86,4.86,1.37,6,2C105.89,46.64,106.23,49.2,103.34,53.12Z"/><path class="cls-10" d="M172.9,68.47a2.06,2.06,0,0,1-.68,1.79C168,73.42,162.16,76,157.3,76c-4.1,0-5.63-3.16-4.86-8a47.93,47.93,0,0,1,2.73-8.55,32.5,32.5,0,0,1,5.1-8.41,15.67,15.67,0,0,1,2.66-2.57,3.29,3.29,0,0,1,2.47.34,24.49,24.49,0,0,1,5.71,4.87,1.76,1.76,0,0,1-.34,2,38.37,38.37,0,0,0-7.42,14.32,25,25,0,0,0,8.87-2.56C172.82,67.11,172.9,67.53,172.9,68.47Z"/></svg>