<svg width="200" height="90" viewBox="0 0 200 90" fill="none" xmlns="http://www.w3.org/2000/svg">
<path d="M112.14 15.48C112.14 15.48 105.2 14.25 87.77 43.48C70.34 72.71 69.77 71.82 63.31 74.64C56.85 77.46 52 61.64 52 61.64L74 27.64C74 27.64 86.8 2.78 112.14 15.48Z" fill="url(#paint0_linear_242_48)"/>
<path d="M27.1001 34.72C27.1001 34.72 31.1701 37 37.9301 56.79C44.6901 76.58 55.6701 75.35 56.5601 75.5C56.5601 75.5 64.8601 76.5 70.5001 69.98C70.5001 69.98 64.1201 74.06 60.0001 61.51C55.8801 48.96 51.1701 26.64 27.1001 34.72Z" fill="url(#paint1_linear_242_48)"/>
<path d="M103.34 36.41C105.704 33.4424 107.894 30.3406 109.9 27.12C110.16 26.69 110.33 26.61 110.76 26.78C112.663 27.4466 114.305 28.7001 115.45 30.36C116.04 31.36 115.96 32.36 114.93 33.51C113.624 34.9594 112.199 36.2973 110.67 37.51C109.321 38.3532 107.737 38.7422 106.15 38.62C105.1 38.6262 104.067 38.3609 103.15 37.85C102.83 37.52 102.83 37 103.34 36.41Z" fill="url(#paint2_linear_242_48)"/>
<path d="M110.16 57.9L109.9 57.64C109.64 57.39 109.47 57.47 108.9 58.24L108.64 58.58C101.22 68.47 95.9399 71.58 91.9299 72.14C89.9139 72.7625 87.7412 72.6381 85.8093 71.7897C83.8775 70.9413 82.3157 69.4256 81.4099 67.52C80.9365 69.1159 81.1014 70.8334 81.8699 72.31C82.6235 73.6387 83.6742 74.775 84.9399 75.63C86.4329 76.8041 88.245 77.5011 90.1399 77.63C96.5299 77.63 106.51 65.94 110.09 59.97L110.35 59.55C110.452 59.4318 110.528 59.2937 110.574 59.1446C110.62 58.9954 110.634 58.8384 110.616 58.6834C110.598 58.5284 110.549 58.3788 110.47 58.2439C110.392 58.1091 110.286 57.992 110.16 57.9V57.9Z" fill="url(#paint3_linear_242_48)"/>
<path d="M135.54 57.9L135.29 57.64C135.03 57.39 134.86 57.47 134.29 58.24L134.03 58.58C128.32 66.25 121.5 70.94 117.03 70.94C116.486 70.9377 115.943 70.8807 115.41 70.77C117.97 64.89 124.96 54.23 129.99 46.9L115 49.2C112.35 52.87 110 56.2 108.43 58.58C104.34 64.89 103.83 69.41 105.19 71.28C107.49 74.52 110.39 76.83 113.8 76.83C121.48 76.83 132.48 64.89 135.46 59.94L135.72 59.52C135.819 59.4037 135.893 59.2684 135.938 59.1224C135.982 58.9764 135.996 58.8229 135.98 58.6712C135.963 58.5195 135.915 58.3728 135.84 58.2402C135.764 58.1076 135.662 57.9918 135.54 57.9V57.9Z" fill="url(#paint4_linear_242_48)"/>
<path d="M139.9 42.21C139.871 42.9151 139.668 43.6022 139.31 44.21C138.679 44.746 137.909 45.0927 137.09 45.21C135.3 45.64 132.74 46.21 129.93 46.83L115 49.2C112.69 49.37 111.58 48.95 111.24 48.09C110.886 47.1274 110.687 46.1149 110.65 45.09C110.65 44.49 111.07 44.32 112.18 44.15C114.4 43.89 116.7 43.64 119.18 43.38L133.25 42C135.47 41.83 137.25 41.74 138.54 41.66C139.65 41.7 139.9 41.78 139.9 42.21Z" fill="url(#paint5_linear_242_48)"/>
<path d="M138.11 32.2299C138.11 34.2799 136.41 37.2299 133.25 42.0399L119.18 43.3999C122.526 38.8771 125.63 34.1805 128.48 29.3299C129.67 27.1199 129.93 26.6899 130.48 26.6899C131.984 26.9418 133.431 27.4635 134.75 28.2299C136.83 29.2499 138.11 30.4399 138.11 32.2299Z" fill="url(#paint6_linear_242_48)"/>
<path d="M157.3 44.34C155.541 43.9429 153.704 44.061 152.01 44.68C145.81 46.8148 140.322 50.6216 136.15 55.68C131.15 61.68 130.44 66.6 132.4 69.84C133.264 71.424 134.566 72.7258 136.15 73.59C139.48 76.49 141.35 76.59 143.48 75.59C145.87 74.59 148.94 71.93 152.48 67.92C153.12 64.9909 154.034 62.1283 155.21 59.37C151.21 64.57 146.67 68.22 142.42 70.05C142.25 63.57 150.76 54.05 160.31 50.96C161.092 50.0013 161.985 49.1386 162.97 48.39C161.565 46.4654 159.576 45.0451 157.3 44.34V44.34Z" fill="url(#paint7_linear_242_48)"/>
<path d="M103.34 53.1201C99.2399 58.5001 92.5899 67.3601 91.9099 72.1201C84.9099 75.1201 81.4699 67.8801 81.3899 67.5001C81.9799 65.1501 83.6299 62.3001 86.4499 58.5701C89.7527 54.3773 92.7599 49.96 95.4499 45.3501C96.4499 43.4801 96.7199 43.2201 97.8299 43.5601C100.13 44.4201 102.69 44.9301 103.83 45.5601C105.89 46.6401 106.23 49.2001 103.34 53.1201Z" fill="url(#paint8_linear_242_48)"/>
<path d="M172.9 68.47C172.94 68.8011 172.899 69.137 172.781 69.4488C172.662 69.7606 172.47 70.039 172.22 70.26C168 73.42 162.16 76 157.3 76C153.2 76 151.67 72.84 152.44 68C153.08 65.0709 153.994 62.2083 155.17 59.45C156.433 56.4042 158.153 53.5684 160.27 51.04C161.052 50.0813 161.945 49.2186 162.93 48.47C163.766 48.2549 164.653 48.377 165.4 48.81C167.542 50.1303 169.468 51.7729 171.11 53.68C171.267 54.0077 171.318 54.3758 171.257 54.7339C171.196 55.092 171.026 55.4225 170.77 55.68C167.31 59.8737 164.781 64.7549 163.35 70C166.44 69.7047 169.448 68.8366 172.22 67.44C172.82 67.11 172.9 67.53 172.9 68.47Z" fill="url(#paint9_linear_242_48)"/>
<defs>
<linearGradient id="paint0_linear_242_48" x1="103.442" y1="9.88502" x2="53.9093" y2="71.0786" gradientUnits="userSpaceOnUse">
<stop offset="0.11" stop-color="#898989"/>
<stop offset="0.88" stop-color="#252244"/>
</linearGradient>
<linearGradient id="paint1_linear_242_48" x1="63.2478" y1="82.4707" x2="37.1184" y2="28.5933" gradientUnits="userSpaceOnUse">
<stop offset="0.02" stop-color="#898989"/>
<stop offset="1" stop-color="#3A3A48"/>
</linearGradient>
<linearGradient id="paint2_linear_242_48" x1="119.76" y1="19.37" x2="76.8001" y2="82.48" gradientUnits="userSpaceOnUse">
<stop offset="0.11" stop-color="#898989"/>
<stop offset="0.88" stop-color="#3A3A48"/>
</linearGradient>
<linearGradient id="paint3_linear_242_48" x1="81.1399" y1="67.56" x2="110.6" y2="67.56" gradientUnits="userSpaceOnUse">
<stop offset="0.02" stop-color="#898989"/>
<stop offset="1" stop-color="#3A3A48"/>
</linearGradient>
<linearGradient id="paint4_linear_242_48" x1="131.08" y1="45.42" x2="107.2" y2="81.64" gradientUnits="userSpaceOnUse">
<stop offset="0.02" stop-color="#898989"/>
<stop offset="1" stop-color="#3A3A48"/>
</linearGradient>
<linearGradient id="paint5_linear_242_48" x1="119.66" y1="53.17" x2="127.22" y2="40.95" gradientUnits="userSpaceOnUse">
<stop offset="0.11" stop-color="#898989"/>
<stop offset="0.88" stop-color="#3A3A48"/>
</linearGradient>
<linearGradient id="paint6_linear_242_48" x1="120.26" y1="55.7099" x2="141.3" y2="12.4499" gradientUnits="userSpaceOnUse">
<stop offset="0.11" stop-color="#898989"/>
<stop offset="0.88" stop-color="#3A3A48"/>
</linearGradient>
<linearGradient id="paint7_linear_242_48" x1="172.5" y1="44.6" x2="137.09" y2="66.23" gradientUnits="userSpaceOnUse">
<stop offset="0.02" stop-color="#898989"/>
<stop offset="1" stop-color="#252244"/>
</linearGradient>
<linearGradient id="paint8_linear_242_48" x1="101.29" y1="41.0001" x2="87.1699" y2="71.8101" gradientUnits="userSpaceOnUse">
<stop offset="0.11" stop-color="#898989"/>
<stop offset="0.88" stop-color="#3A3A48"/>
</linearGradient>
<linearGradient id="paint9_linear_242_48" x1="148.84" y1="55.81" x2="180.84" y2="73.73" gradientUnits="userSpaceOnUse">
<stop offset="0.11" stop-color="#8A8A8A"/>
<stop offset="0.88" stop-color="#3A3A48"/>
</linearGradient>
</defs>
</svg>
