<svg width="101" height="21" viewBox="0 0 101 21" fill="none" xmlns="http://www.w3.org/2000/svg">
<g clip-path="url(#clip0_158_549)">
<path d="M116.12 3.49212C115.789 3.15843 115.406 2.88625 114.988 2.68725C114.61 2.51133 114.2 2.4212 113.787 2.42277C113.458 2.40975 113.131 2.46604 112.823 2.58828C112.516 2.71052 112.235 2.89624 111.997 3.13441C111.767 3.37234 111.587 3.65765 111.467 3.97237C111.348 4.28708 111.292 4.62437 111.302 4.96296C111.29 5.29845 111.345 5.63299 111.463 5.94477C111.582 6.25655 111.762 6.53859 111.992 6.77249C112.232 7.00706 112.515 7.18923 112.823 7.30845C113.131 7.42767 113.459 7.48156 113.787 7.467C114.232 7.46431 114.674 7.37662 115.089 7.20823C115.555 7.0166 115.992 6.75579 116.387 6.4338L116.256 8.59344C115.881 8.83369 115.473 9.01509 115.048 9.13192C114.604 9.25916 114.145 9.32315 113.685 9.3222C113.193 9.32286 112.704 9.2472 112.233 9.09767C111.774 8.95052 111.34 8.72696 110.949 8.43551C110.416 8.04718 109.98 7.53034 109.678 6.92852C109.382 6.32862 109.23 5.66158 109.236 4.9858C109.232 4.4039 109.342 3.82742 109.56 3.29234C109.781 2.76184 110.105 2.2855 110.511 1.8938C110.933 1.48872 111.426 1.17338 111.963 0.96525C112.519 0.749273 113.108 0.640341 113.701 0.643685C114.169 0.640258 114.635 0.704283 115.086 0.833962C115.529 0.960954 115.953 1.15314 116.345 1.40479L116.126 3.48642L116.12 3.49212ZM105.697 9.05011V0.919586H107.753V9.05011H105.697ZM97.9254 9.05011V0.919586H100.139C100.694 0.908129 101.249 0.954658 101.796 1.05849C102.164 1.13781 102.514 1.28745 102.83 1.49993C103.137 1.70059 103.393 1.97608 103.576 2.30289C103.75 2.60986 103.841 2.96019 103.841 3.31707C103.849 3.79849 103.704 4.269 103.429 4.65471C103.121 5.06692 102.708 5.38008 102.239 5.55853L104.855 9.05011H102.509L100.212 5.85726H99.9196V9.05011H97.9254ZM100.257 2.39042H99.9196V4.65471H100.353C100.872 4.65471 101.268 4.55577 101.54 4.35788C101.673 4.26461 101.78 4.13693 101.852 3.98724C101.924 3.83755 101.958 3.67093 101.95 3.50354C101.962 3.33854 101.932 3.17312 101.862 3.02475C101.792 2.87638 101.685 2.75058 101.553 2.66062C101.288 2.48556 100.856 2.39994 100.257 2.39994V2.39042ZM91.0028 9.05011V0.919586H96.3068V2.59592H93.0024V4.06676H95.835V5.73358H93.0024V7.33762H96.3521V9.05011H91.0028ZM79.551 9.05011L81.3383 0.651295H81.4853L84.7389 5.9524L87.8 0.655101H87.9543L89.7562 9.05011H87.8019L87.076 5.3359L84.7661 9.34694H84.63L82.144 5.28263L81.3891 9.05011H79.551ZM62.5411 7.34903C62.7357 7.43277 62.9358 7.50145 63.14 7.55453C63.297 7.59812 63.4584 7.62175 63.6208 7.62493C64.0309 7.62493 64.3194 7.49935 64.4936 7.24438C64.6678 6.98941 64.7549 6.56319 64.7549 5.95811V0.919586H66.8235V6.42239C66.8235 7.36045 66.5677 8.07969 66.056 8.57441C65.5443 9.06913 64.8075 9.3184 63.8422 9.3184C63.6602 9.31844 63.4785 9.307 63.2978 9.28415C63.1094 9.26054 62.9223 9.22688 62.7371 9.1833L62.5411 7.35284V7.34903ZM54.0961 9.05011V0.655101H54.2939L59.6542 5.41202V0.919586H61.5486V9.36216H61.3671L55.9923 4.61666V9.05011H54.0961ZM46.7053 9.05011H44.6367L49.0244 0.662711H49.155L53.4501 9.05011H51.2998L49.0044 4.45683L46.7053 9.05011ZM72.5249 9.05011H70.4581L74.8458 0.662711H74.9782L79.2697 9.05011H77.1176L74.8222 4.45302L72.5249 9.05011ZM118.924 9.05011H116.857L121.244 0.662711H121.377L125.668 9.05011H123.518L121.223 4.45302L118.924 9.05011Z" fill="white"/>
</g>
<g clip-path="url(#clip1_158_549)">
<path d="M90.4776 14.1923C90.1464 13.8586 89.7635 13.5864 89.3453 13.3874C88.9671 13.2115 88.5577 13.1214 88.144 13.123C87.8155 13.1099 87.4879 13.1662 87.1806 13.2885C86.8733 13.4107 86.5924 13.5964 86.3548 13.8346C86.1248 14.0725 85.9443 14.3578 85.8247 14.6726C85.7051 14.9873 85.649 15.3246 85.6599 15.6632C85.6471 15.9986 85.702 16.3332 85.8208 16.645C85.9396 16.9567 86.1197 17.2388 86.3494 17.4727C86.5898 17.7073 86.8722 17.8894 87.1803 18.0086C87.4884 18.1279 87.8159 18.1818 88.144 18.1672C88.5897 18.1645 89.0312 18.0768 89.4469 17.9084C89.9125 17.7168 90.3494 17.456 90.7443 17.134L90.6136 19.2936C90.238 19.5339 89.8308 19.7153 89.4052 19.8321C88.9611 19.9594 88.5027 20.0233 88.0424 20.0224C87.5506 20.0231 87.0614 19.9474 86.5907 19.7979C86.1314 19.6507 85.6977 19.4272 85.306 19.1357C84.7736 18.7474 84.3379 18.2305 84.0358 17.6287C83.739 17.0288 83.587 16.3618 83.5931 15.686C83.5892 15.1041 83.6998 14.5276 83.9179 13.9925C84.1385 13.462 84.4624 12.9857 84.8687 12.594C85.2907 12.1889 85.7838 11.8736 86.3204 11.6654C86.8767 11.4495 87.4655 11.3405 88.0587 11.3439C88.5264 11.3405 88.9922 11.4045 89.4433 11.5342C89.8866 11.6611 90.3106 11.8533 90.7026 12.105L90.483 14.1866L90.4776 14.1923ZM80.0546 19.7503V11.6198H82.1105V19.7503H80.0546ZM72.2828 19.7503V11.6198H74.4966C75.0518 11.6083 75.6068 11.6549 76.1533 11.7587C76.521 11.838 76.8716 11.9876 77.1876 12.2001C77.4943 12.4008 77.7502 12.6763 77.9334 13.0031C78.107 13.3101 78.1985 13.6604 78.1983 14.0173C78.2061 14.4987 78.0613 14.9692 77.7864 15.3549C77.4782 15.7671 77.0657 16.0803 76.5961 16.2587L79.2127 19.7503H76.8664L74.5692 16.5575H74.277V19.7503H72.2828ZM74.6145 13.0906H74.277V15.3549H74.7107C75.2297 15.3549 75.6252 15.256 75.8974 15.0581C76.0302 14.9648 76.1377 14.8371 76.2096 14.6874C76.2814 14.5378 76.3152 14.3711 76.3075 14.2037C76.3198 14.0387 76.2894 13.8733 76.2194 13.7249C76.1495 13.5766 76.0426 13.4508 75.9101 13.3608C75.6452 13.1858 75.2133 13.1001 74.6145 13.1001V13.0906ZM65.3602 19.7503V11.6198H70.6642V13.2961H67.3599V14.767H70.1924V16.4338H67.3599V18.0378H70.7096V19.7503H65.3602ZM53.9084 19.7503L55.6958 11.3515H55.8427L59.0963 16.6526L62.1575 11.3553H62.3117L64.1136 19.7503H62.1593L61.4335 16.0361L59.1235 20.0471H58.9874L56.5014 15.9828L55.7466 19.7503H53.9084ZM36.8986 18.0492C37.0931 18.133 37.2933 18.2016 37.4974 18.2547C37.6544 18.2983 37.8158 18.3219 37.9782 18.3251C38.3883 18.3251 38.6768 18.1995 38.851 17.9446C39.0252 17.6896 39.1123 17.2634 39.1123 16.6583V11.6198H41.181V17.1226C41.181 18.0606 40.9251 18.7799 40.4134 19.2746C39.9017 19.7693 39.165 20.0186 38.1996 20.0186C38.0177 20.0186 37.8359 20.0072 37.6552 19.9843C37.4668 19.9607 37.2797 19.9271 37.0945 19.8835L36.8986 18.053V18.0492ZM28.4535 19.7503V11.3553H28.6513L34.0116 16.1122V11.6198H35.906V20.0624H35.7245L30.3498 15.3169V19.7503H28.4535ZM21.0628 19.7503H18.9941L23.3818 11.3629H23.5124L27.8075 19.7503H25.6573L23.3618 15.157L21.0628 19.7503ZM46.8824 19.7503H44.8156L49.2032 11.3629H49.3357L53.6271 19.7503H51.4751L49.1796 15.1532L46.8824 19.7503ZM93.2811 19.7503H91.2143L95.6019 11.3629H95.7344L100.026 19.7503H97.8756L95.5801 15.1532L93.2811 19.7503Z" fill="white"/>
</g>
<path fill-rule="evenodd" clip-rule="evenodd" d="M18.0239 0.728516H11.9609L15.4482 9.01425C15.8637 9.99719 16.9449 10.7679 17.7782 10.7679H22.3265C23.1598 10.7679 23.4323 10.0039 23.028 9.01425L20.3629 2.48217C19.9563 1.49253 18.8684 0.728516 18.0329 0.728516H18.0239Z" fill="#3E36B6"/>
<path fill-rule="evenodd" clip-rule="evenodd" d="M12.0434 0.728516H18.1064L10.2116 18.0796C9.76482 19.0469 8.71486 19.8332 7.8816 19.8332H3.33329C2.50002 19.8332 2.19174 19.0491 2.63183 18.0796L9.71343 2.48216C10.1602 1.51263 11.2102 0.728516 12.0434 0.728516Z" fill="#4F46E5"/>
<path fill-rule="evenodd" clip-rule="evenodd" d="M20.7366 17.2532C32.1298 16.927 41.3203 15.2896 41.2712 13.5985C41.2221 11.9074 31.9489 10.7971 20.5602 11.1233C9.17142 11.4494 -0.0235604 13.0869 0.0255867 14.7802C0.0439851 14.9021 0.0902366 15.0181 0.160751 15.1193C0.231265 15.2204 0.324141 15.3039 0.432166 15.3633C0.359396 15.2804 0.315496 15.1761 0.307065 15.0662C0.264619 13.5359 9.09546 12.0414 20.0307 11.7287C30.9659 11.4159 39.866 12.3988 39.9129 13.9313C39.9599 15.4638 31.2787 16.9293 20.4775 17.2599H20.7389L20.7366 17.2532Z" fill="#FFD700"/>
<path fill-rule="evenodd" clip-rule="evenodd" d="M21.2832 19.9178H27.3461L24.9469 13.8728C24.5514 12.8787 23.4501 12.1191 22.6168 12.1191H18.0685C17.2352 12.1191 16.9515 12.8831 17.3671 13.8728L18.9532 18.1641C19.3262 19.1694 20.4499 19.9178 21.2832 19.9178Z" fill="#3E36B6"/>
<path fill-rule="evenodd" clip-rule="evenodd" d="M27.186 19.9132H21.123L29.297 2.38352C29.7438 1.41846 30.7915 0.629883 31.627 0.629883H36.1731C37.0086 0.629883 37.3258 1.41846 36.8768 2.38352L29.5204 18.1595C29.0736 19.1246 28.0237 19.9132 27.1904 19.9132H27.186Z" fill="#4F46E5"/>
<defs>
<clipPath id="clip0_158_549">
<rect width="23.0787" height="8.7186" fill="white" transform="translate(44.6367 0.643555)"/>
</clipPath>
<clipPath id="clip1_158_549">
<rect width="55.3888" height="8.7186" fill="white" transform="translate(44.6367 11.3438)"/>
</clipPath>
</defs>
</svg>
