<svg width="129" height="26" viewBox="0 0 129 26" fill="none" xmlns="http://www.w3.org/2000/svg">
<g clip-path="url(#clip0_179_2579)">
<path d="M149.762 3.92661C149.335 3.49614 148.841 3.14503 148.302 2.88833C147.814 2.66138 147.286 2.54511 146.752 2.54714C146.328 2.53035 145.906 2.60296 145.509 2.76065C145.113 2.91834 144.751 3.15791 144.444 3.46515C144.147 3.77208 143.915 4.14014 143.76 4.54612C143.606 4.95211 143.534 5.38721 143.548 5.82399C143.531 6.25677 143.602 6.68832 143.755 7.09052C143.908 7.49272 144.141 7.85655 144.437 8.15829C144.747 8.46087 145.112 8.69588 145.509 8.84967C145.906 9.00346 146.329 9.07299 146.752 9.0542C147.327 9.05073 147.897 8.93762 148.433 8.72039C149.034 8.47318 149.597 8.13674 150.107 7.72138L149.938 10.5073C149.453 10.8172 148.928 11.0512 148.379 11.202C147.806 11.3661 147.215 11.4486 146.621 11.4474C145.987 11.4483 145.356 11.3507 144.748 11.1578C144.156 10.9679 143.596 10.6795 143.091 10.3036C142.404 9.80264 141.842 9.1359 141.453 8.35956C141.07 7.58569 140.874 6.72521 140.881 5.85345C140.876 5.1028 141.019 4.35914 141.3 3.66888C141.585 2.98454 142.003 2.37006 142.527 1.86477C143.071 1.34222 143.707 0.935426 144.4 0.666941C145.117 0.38833 145.877 0.247807 146.642 0.252122C147.245 0.2477 147.846 0.330293 148.428 0.497579C149 0.661398 149.547 0.909316 150.053 1.23395L149.77 3.91925L149.762 3.92661ZM136.317 11.0964V0.608034H138.969V11.0964H136.317ZM126.291 11.0964V0.608034H129.147C129.863 0.593254 130.579 0.653277 131.284 0.787216C131.758 0.88954 132.211 1.08258 132.618 1.35668C133.014 1.61553 133.344 1.97091 133.581 2.3925C133.804 2.78849 133.922 3.24042 133.922 3.70079C133.932 4.32182 133.745 4.92878 133.391 5.42635C132.993 5.9581 132.461 6.36208 131.855 6.59227L135.231 11.0964H132.204L129.241 6.97764H128.864V11.0964H126.291ZM129.299 2.50541H128.864V5.42635H129.423C130.093 5.42635 130.603 5.29871 130.954 5.04344C131.125 4.92312 131.264 4.75842 131.357 4.56532C131.449 4.37222 131.493 4.15727 131.483 3.94134C131.499 3.72848 131.46 3.51509 131.369 3.3237C131.279 3.1323 131.141 2.97001 130.971 2.85396C130.629 2.62814 130.072 2.51769 129.299 2.51769V2.50541ZM117.361 11.0964V0.608034H124.203V2.77051H119.941V4.66789H123.595V6.8181H119.941V8.8873H124.262V11.0964H117.361ZM102.588 11.0964L104.894 0.261938H105.084L109.281 7.10037L113.23 0.266848H113.429L115.753 11.0964H113.232L112.296 6.30509L109.316 11.4793H109.14L105.933 6.23636L104.959 11.0964H102.588ZM80.6455 8.90202C80.8965 9.01004 81.1547 9.09864 81.418 9.16712C81.6206 9.22334 81.8288 9.25383 82.0383 9.25793C82.5673 9.25793 82.9395 9.09593 83.1643 8.76702C83.389 8.43811 83.5013 7.88829 83.5013 7.10773V0.608034H86.1698V7.70665C86.1698 8.91675 85.8398 9.84458 85.1797 10.4828C84.5196 11.121 83.5692 11.4425 82.3239 11.4425C82.0892 11.4426 81.8547 11.4278 81.6217 11.3983C81.3786 11.3679 81.1372 11.3244 80.8984 11.2682L80.6455 8.90693V8.90202ZM69.7514 11.0964V0.266848H70.0066L76.9213 6.40327V0.608034H79.3651V11.499H79.131L72.1976 5.37726V11.0964H69.7514ZM60.2173 11.0964H57.5488L63.2089 0.276665H63.3774L68.9181 11.0964H66.1443L63.1831 5.17108L60.2173 11.0964ZM93.5247 11.0964H90.8585L96.5185 0.276665H96.6894L102.225 11.0964H99.4492L96.4881 5.16617L93.5247 11.0964ZM153.379 11.0964H150.713L156.373 0.276665H156.544L162.08 11.0964H159.306L156.345 5.16617L153.379 11.0964Z" fill="black"/>
</g>
<g clip-path="url(#clip1_179_2579)">
<path d="M116.682 17.7274C116.255 17.2969 115.761 16.9458 115.222 16.6891C114.734 16.4622 114.206 16.3459 113.672 16.3479C113.248 16.3311 112.826 16.4037 112.429 16.5614C112.033 16.7191 111.671 16.9587 111.364 17.2659C111.067 17.5729 110.835 17.9409 110.68 18.3469C110.526 18.7529 110.454 19.188 110.468 19.6248C110.451 20.0576 110.522 20.4891 110.675 20.8913C110.828 21.2935 111.061 21.6573 111.357 21.9591C111.667 22.2617 112.032 22.4967 112.429 22.6505C112.826 22.8042 113.249 22.8738 113.672 22.855C114.247 22.8515 114.817 22.7384 115.353 22.5212C115.953 22.274 116.517 21.9375 117.027 21.5222L116.858 24.3081C116.373 24.618 115.848 24.852 115.299 25.0027C114.726 25.1669 114.135 25.2494 113.541 25.2482C112.907 25.249 112.276 25.1514 111.668 24.9586C111.076 24.7687 110.516 24.4803 110.011 24.1044C109.324 23.6034 108.762 22.9367 108.373 22.1603C107.99 21.3865 107.794 20.526 107.801 19.6542C107.796 18.9036 107.939 18.1599 108.22 17.4697C108.505 16.7853 108.923 16.1708 109.447 15.6656C109.991 15.143 110.627 14.7362 111.32 14.4677C112.037 14.1891 112.797 14.0486 113.562 14.0529C114.165 14.0485 114.766 14.1311 115.348 14.2984C115.92 14.4622 116.467 14.7101 116.973 15.0347L116.689 17.72L116.682 17.7274ZM103.237 24.8972V14.4088H105.889V24.8972H103.237ZM93.2112 24.8972V14.4088H96.0669C96.7832 14.394 97.4991 14.4541 98.2041 14.588C98.6784 14.6903 99.1307 14.8834 99.5384 15.1575C99.934 15.4163 100.264 15.7717 100.5 16.1933C100.724 16.5893 100.842 17.0412 100.842 17.5016C100.852 18.1226 100.665 18.7296 100.311 19.2271C99.9132 19.7589 99.3811 20.1629 98.7753 20.3931L102.151 24.8972H99.124L96.1606 20.7784H95.7837V24.8972H93.2112ZM96.2191 16.3062H95.7837V19.2271H96.3432C97.0126 19.2271 97.5229 19.0995 97.874 18.8442C98.0453 18.7239 98.184 18.5592 98.2767 18.3661C98.3694 18.173 98.4129 17.9581 98.4031 17.7421C98.4189 17.5293 98.3796 17.3159 98.2894 17.1245C98.1992 16.9331 98.0613 16.7708 97.8904 16.6547C97.5487 16.4289 96.9916 16.3185 96.2191 16.3185V16.3062ZM84.281 24.8972V14.4088H91.1232V16.5713H86.8606V18.4687H90.5146V20.6189H86.8606V22.6881H91.1817V24.8972H84.281ZM69.5082 24.8972L71.8139 14.0627H72.0035L76.2005 20.9012L80.1495 14.0676H80.3484L82.6729 24.8972H80.1518L79.2155 20.1059L76.2356 25.2801H76.0601L72.8532 20.0371L71.8794 24.8972H69.5082ZM47.5655 22.7028C47.8164 22.8108 48.0746 22.8994 48.3379 22.9679C48.5405 23.0241 48.7488 23.0546 48.9582 23.0587C49.4873 23.0587 49.8595 22.8967 50.0842 22.5678C50.3089 22.2389 50.4212 21.6891 50.4212 20.9085V14.4088H53.0898V21.5074C53.0898 22.7175 52.7597 23.6454 52.0996 24.2835C51.4395 24.9217 50.4891 25.2433 49.2438 25.2433C49.0091 25.2433 48.7746 25.2286 48.5416 25.1991C48.2985 25.1686 48.0571 25.1252 47.8183 25.069L47.5655 22.7077V22.7028ZM36.6714 24.8972V14.0676H36.9265L43.8412 20.2041V14.4088H46.285V25.2997H46.051L39.1175 19.178V24.8972H36.6714ZM27.1373 24.8972H24.4688L30.1288 14.0774H30.2974L35.838 24.8972H33.0642L30.1031 18.9719L27.1373 24.8972ZM60.4446 24.8972H57.7784L63.4385 14.0774H63.6093L69.1453 24.8972H66.3692L63.408 18.9669L60.4446 24.8972ZM120.299 24.8972H117.633L123.293 14.0774H123.464L129 24.8972H126.226L123.265 18.9669L120.299 24.8972Z" fill="black"/>
</g>
<path fill-rule="evenodd" clip-rule="evenodd" d="M23.2158 0.126953H15.3945L19.893 10.7678C20.4291 12.0302 21.8239 13.02 22.8988 13.02H28.7662C29.8411 13.02 30.1927 12.0388 29.671 10.7678L26.233 2.37907C25.7086 1.10813 24.3051 0.126953 23.2273 0.126953H23.2158Z" fill="#07038C"/>
<path fill-rule="evenodd" clip-rule="evenodd" d="M15.5047 0.126953H23.3259L13.1416 22.4099C12.5653 23.6521 11.2108 24.662 10.1359 24.662H4.26859C3.19368 24.662 2.796 23.655 3.36371 22.4099L12.499 2.37906C13.0753 1.13395 14.4298 0.126953 15.5047 0.126953Z" fill="#0339D9"/>
<path fill-rule="evenodd" clip-rule="evenodd" d="M26.7175 21.3477C41.4147 20.9288 53.2705 18.8259 53.2071 16.6541C53.1437 14.4824 41.1813 13.0565 26.4899 13.4754C11.7984 13.8942 -0.0631468 15.9972 0.000252974 18.1718C0.0239869 18.3283 0.0836514 18.4773 0.174614 18.6072C0.265577 18.7371 0.385388 18.8443 0.52474 18.9206C0.430867 18.8141 0.374236 18.6802 0.363359 18.539C0.308605 16.5738 11.7004 14.6545 25.8069 14.2528C39.9133 13.8512 51.3944 15.1135 51.455 17.0816C51.5155 19.0497 40.3168 20.9317 26.3832 21.3563H26.7204L26.7175 21.3477Z" fill="#FFD700"/>
<path fill-rule="evenodd" clip-rule="evenodd" d="M27.423 24.7712H35.2442L32.1491 17.0079C31.639 15.7313 30.2183 14.7559 29.1434 14.7559H23.2761C22.2011 14.7559 21.8352 15.737 22.3712 17.0079L24.4173 22.5191C24.8985 23.8101 26.3481 24.7712 27.423 24.7712Z" fill="#07038C"/>
<path fill-rule="evenodd" clip-rule="evenodd" d="M35.0379 24.7644H27.2168L37.7612 2.25209C38.3376 1.01272 39.6891 0 40.7669 0H46.6314C47.7091 0 48.1184 1.01272 47.5391 2.25209L38.0494 22.5123C37.4731 23.7517 36.1186 24.7644 35.0437 24.7644H35.0379Z" fill="#0339D9"/>
<defs>
<clipPath id="clip0_179_2579">
<rect width="29.7715" height="11.247" fill="white" transform="translate(57.5488 0.251953)"/>
</clipPath>
<clipPath id="clip1_179_2579">
<rect width="71.4516" height="11.247" fill="white" transform="translate(57.5488 14.0527)"/>
</clipPath>
</defs>
</svg>
