<svg width="21" height="20" viewBox="0 0 21 20" fill="none" xmlns="http://www.w3.org/2000/svg">
<path d="M10.6393 1.80182C13.322 1.80182 13.6397 1.81182 14.6995 1.85991C15.3366 1.86767 15.9678 1.98412 16.5654 2.20418C16.9988 2.37053 17.3924 2.62535 17.7209 2.95224C18.0494 3.27913 18.3054 3.67085 18.4725 4.10219C18.6937 4.69697 18.8107 5.32509 18.8185 5.95924C18.8663 7.01395 18.8768 7.33013 18.8768 10C18.8768 12.6699 18.8668 12.986 18.8185 14.0408C18.8107 14.6749 18.6937 15.303 18.4725 15.8978C18.3054 16.3291 18.0494 16.7209 17.7209 17.0478C17.3924 17.3747 16.9988 17.6295 16.5654 17.7958C15.9678 18.0159 15.3366 18.1323 14.6995 18.1401C13.6402 18.1877 13.3225 18.1982 10.6393 18.1982C7.95614 18.1982 7.63845 18.1882 6.57916 18.1401C5.94197 18.1323 5.31083 18.0159 4.71319 17.7958C4.27979 17.6295 3.88619 17.3747 3.55773 17.0478C3.22927 16.7209 2.97322 16.3291 2.80608 15.8978C2.58496 15.303 2.46795 14.6749 2.46016 14.0408C2.41231 12.986 2.40178 12.6699 2.40178 10C2.40178 7.33013 2.41183 7.01395 2.46016 5.95924C2.46795 5.32509 2.58496 4.69697 2.80608 4.10219C2.97322 3.67085 3.22927 3.27913 3.55773 2.95224C3.88619 2.62535 4.27979 2.37053 4.71319 2.20418C5.31083 1.98412 5.94197 1.86767 6.57916 1.85991C7.63893 1.81229 7.95662 1.80182 10.6393 1.80182ZM10.6393 0C7.91213 0 7.5686 0.011428 6.49686 0.0599971C5.66294 0.0765049 4.83787 0.233646 4.05675 0.524737C3.38668 0.775994 2.77976 1.16974 2.27834 1.67849C1.76669 2.17769 1.37072 2.78206 1.1181 3.44936C0.825607 4.22675 0.667712 5.04788 0.651125 5.87782C0.60328 6.94348 0.591797 7.28537 0.591797 9.99952C0.591797 12.7137 0.60328 13.0556 0.652082 14.1222C0.668669 14.9521 0.826564 15.7733 1.11905 16.5506C1.37139 17.2179 1.76703 17.8222 2.27834 18.3215C2.78004 18.8304 3.38729 19.2241 4.05771 19.4753C4.83883 19.7664 5.6639 19.9235 6.49782 19.94C7.56955 19.9876 7.91165 20 10.6403 20C13.3689 20 13.711 19.9886 14.7827 19.94C15.6166 19.9235 16.4417 19.7664 17.2228 19.4753C17.8901 19.2179 18.496 18.8247 19.0018 18.3209C19.5077 17.8172 19.9023 17.2139 20.1605 16.5497C20.453 15.7723 20.6109 14.9512 20.6275 14.1212C20.6753 13.0556 20.6868 12.7137 20.6868 9.99952C20.6868 7.28537 20.6753 6.94348 20.6265 5.87686C20.6099 5.04693 20.4521 4.2258 20.1596 3.44841C19.9072 2.78119 19.5116 2.17684 19.0003 1.67754C18.4986 1.16867 17.8913 0.774919 17.2209 0.523785C16.4398 0.232694 15.6147 0.0755526 14.7808 0.0590448C13.71 0.0114281 13.3665 0 10.6393 0Z" fill="#B3B3B3"/>
<path d="M10.6382 4.86475C9.61767 4.86475 8.62011 5.16591 7.77161 5.73015C6.92312 6.29439 6.26179 7.09637 5.87127 8.03466C5.48075 8.97296 5.37857 10.0054 5.57766 11.0015C5.77674 11.9976 6.26815 12.9126 6.98974 13.6307C7.71133 14.3489 8.63069 14.8379 9.63156 15.0361C10.6324 15.2342 11.6699 15.1325 12.6127 14.7439C13.5555 14.3552 14.3613 13.697 14.9282 12.8526C15.4952 12.0081 15.7978 11.0153 15.7978 9.99974C15.7978 8.63786 15.2542 7.33175 14.2866 6.36875C13.3189 5.40575 12.0066 4.86475 10.6382 4.86475ZM10.6382 13.3329C9.97575 13.3329 9.32822 13.1374 8.77745 12.7712C8.22669 12.4049 7.79741 11.8843 7.54392 11.2753C7.29043 10.6662 7.22411 9.99604 7.35334 9.34947C7.48257 8.7029 7.80154 8.10898 8.26993 7.64283C8.73832 7.17668 9.33509 6.85922 9.98476 6.73061C10.6344 6.602 11.3078 6.66801 11.9198 6.92029C12.5318 7.17257 13.0549 7.59979 13.4229 8.14793C13.7909 8.69606 13.9873 9.3405 13.9873 9.99974C13.9873 10.8838 13.6345 11.7316 13.0064 12.3567C12.3783 12.9817 11.5264 13.3329 10.6382 13.3329Z" fill="#B3B3B3"/>
<path d="M16.0026 5.86156C16.6685 5.86156 17.2083 5.32432 17.2083 4.66161C17.2083 3.9989 16.6685 3.46167 16.0026 3.46167C15.3367 3.46167 14.7969 3.9989 14.7969 4.66161C14.7969 5.32432 15.3367 5.86156 16.0026 5.86156Z" fill="#B3B3B3"/>
</svg>
