<svg width="29" height="29" viewBox="0 0 29 29" fill="none" xmlns="http://www.w3.org/2000/svg">
<path d="M8.5 7V1M20.5 7V1M7 13H22M4 28H25C25.7956 28 26.5587 27.6839 27.1213 27.1213C27.6839 26.5587 28 25.7956 28 25V7C28 6.20435 27.6839 5.44129 27.1213 4.87868C26.5587 4.31607 25.7956 4 25 4H4C3.20435 4 2.44129 4.31607 1.87868 4.87868C1.31607 5.44129 1 6.20435 1 7V25C1 25.7956 1.31607 26.5587 1.87868 27.1213C2.44129 27.6839 3.20435 28 4 28Z" stroke="#214ED1" stroke-linecap="round" stroke-linejoin="round"/>
</svg>
