<svg width="97" height="26" viewBox="0 0 97 26" fill="none" xmlns="http://www.w3.org/2000/svg">
<path d="M3.13512 16.683C3.13512 17.3652 3.36529 17.9449 3.82562 18.4252C4.28596 18.9055 4.84236 19.1452 5.49584 19.1452C6.14931 19.1452 6.70571 18.9055 7.16605 18.4252C7.62638 17.9449 7.85655 17.3642 7.85655 16.683V10.955C7.85655 10.6076 7.97664 10.3084 8.21681 10.0583C8.45699 9.80818 8.74319 9.68262 9.07743 9.68262H9.05342C9.39266 9.68262 9.67587 9.80818 9.90203 10.0583C10.1412 10.3084 10.2613 10.6076 10.2613 10.955V16.683C10.2613 17.3652 10.4905 17.9449 10.9498 18.4252C11.4091 18.9055 11.9645 19.1452 12.617 19.1452C13.2695 19.1452 13.8349 18.9055 14.2942 18.4252C14.7536 17.9449 14.9827 17.3642 14.9827 16.683V10.955C14.9827 10.6076 15.1028 10.3084 15.342 10.0583C15.5682 9.80818 15.8514 9.68262 16.1906 9.68262H16.2657C16.5979 9.68262 16.8841 9.80818 17.1233 10.0583C17.3554 10.3084 17.4725 10.6076 17.4725 10.955V16.683C17.4725 18.0674 17.0042 19.2498 16.0665 20.2303C15.1298 21.2107 14 21.7015 12.6771 21.7015C11.0949 21.7015 9.90604 21.1521 9.10846 20.0534C8.30387 21.1521 7.11101 21.7015 5.52986 21.7015C4.2069 21.7015 3.07808 21.2107 2.1404 20.2303C1.20372 19.2498 0.734375 18.0674 0.734375 16.683V10.955C0.734375 10.6076 0.854462 10.3084 1.09364 10.0583C1.33281 9.80818 1.61501 9.68262 1.94125 9.68262H1.92824C2.25448 9.68262 2.53868 9.80818 2.77886 10.0583C3.01903 10.3084 3.13912 10.6076 3.13912 10.955V16.683H3.13512Z" fill="black"/>
<path d="M20.2285 5.37402C20.5487 5.37402 20.8269 5.49645 21.0621 5.74026C21.2973 5.9914 21.4154 6.29066 21.4154 6.64016V10.3057C21.9407 9.89549 22.7373 9.6904 23.8021 9.6904C25.1271 9.6904 26.2619 10.1843 27.2076 11.1721C28.1523 12.1599 28.6256 13.3496 28.6256 14.7403V20.4473C28.6256 20.802 28.5055 21.0982 28.2663 21.3336C28.0402 21.5837 27.757 21.7093 27.4177 21.7093H27.3447C27.0144 21.7093 26.7312 21.5837 26.4941 21.3336C26.2569 21.0971 26.1378 20.801 26.1378 20.4473V14.7403C26.1378 14.0518 25.9106 13.4637 25.4553 12.9771C24.993 12.4905 24.4356 12.2467 23.7831 12.2467C23.1306 12.2467 22.5622 12.4905 22.1009 12.9771C21.6455 13.4637 21.4184 14.0518 21.4184 14.7403V20.4442C21.4184 20.8 21.3003 21.0961 21.0651 21.3336C20.8299 21.5848 20.5517 21.7103 20.2315 21.7103H20.2025C19.8823 21.7103 19.6041 21.5848 19.3689 21.3336C19.1337 21.0971 19.0156 20.8 19.0156 20.4442V6.64016C19.0156 6.29171 19.1337 5.9914 19.3689 5.74026C19.6041 5.49645 19.8823 5.37402 20.2025 5.37402H20.2315H20.2285Z" fill="black"/>
<path d="M41.1273 16.5228C40.8812 16.1608 40.5509 15.9797 40.1396 15.9797C39.5612 15.9797 39.1749 16.2644 38.9818 16.8357C38.7556 17.5179 38.3603 18.0746 37.7939 18.5047C37.2155 18.9431 36.57 19.1618 35.8585 19.1618C34.7867 19.1618 33.9992 18.828 33.4938 18.1604C33.82 18.0003 34.9238 17.475 36.8072 16.5856C38.3243 15.8688 39.5472 15.2912 40.4789 14.8538C40.7921 14.7073 41.0042 14.4708 41.1173 14.1444C41.1704 13.9989 41.1974 13.8514 41.1974 13.7059C41.1974 13.5249 41.1574 13.3481 41.0773 13.1744C40.625 12.1311 39.9295 11.2898 38.9918 10.6494C38.0471 9.99542 37.0023 9.66895 35.8585 9.66895C34.2754 9.66895 32.9214 10.257 31.7976 11.4321C30.6737 12.6083 30.1113 14.023 30.1113 15.6784C30.1113 17.3338 30.6737 18.7495 31.7976 19.9246C32.9214 21.0997 34.2754 21.6878 35.8585 21.6878C37.0954 21.6878 38.2132 21.309 39.2109 20.5504C40.1957 19.821 40.8842 18.8605 41.2764 17.6707C41.3295 17.5179 41.3565 17.3683 41.3565 17.2218C41.3565 16.979 41.2805 16.7457 41.1273 16.5228ZM32.5751 15.7087C32.5751 14.7481 32.8944 13.9309 33.5328 13.257C34.1783 12.5821 34.9599 12.2452 35.8775 12.2452C36.9013 12.2452 37.6598 12.5518 38.1522 13.1639L32.5741 15.782V15.7098L32.5751 15.7087Z" fill="black"/>
<path d="M53.8695 16.5228C53.6233 16.1608 53.2941 15.9797 52.8818 15.9797C52.3033 15.9797 51.9171 16.2644 51.7249 16.8357C51.4988 17.5179 51.1025 18.0746 50.5371 18.5047C49.9586 18.9431 49.3132 19.1618 48.6016 19.1618C47.5299 19.1618 46.7413 18.828 46.2369 18.1604C46.5622 18.0003 47.667 17.475 49.5493 16.5856C51.0664 15.8688 52.2903 15.2912 53.221 14.8538C53.5332 14.7073 53.7464 14.4708 53.8595 14.1444C53.9125 13.9989 53.9395 13.8514 53.9395 13.7059C53.9395 13.5249 53.8995 13.3481 53.8204 13.1744C53.3681 12.1311 52.6726 11.2898 51.7349 10.6494C50.7902 9.99542 49.7465 9.66895 48.6026 9.66895C47.0185 9.66895 45.6655 10.257 44.5417 11.4321C43.4169 12.6083 42.8555 14.023 42.8555 15.6784C42.8555 17.3338 43.4179 18.7495 44.5417 19.9246C45.6655 21.0997 47.0195 21.6878 48.6026 21.6878C49.8395 21.6878 50.9564 21.309 51.9551 20.5504C52.9398 19.821 53.6273 18.8605 54.0206 17.6707C54.0736 17.5179 54.1006 17.3683 54.1006 17.2218C54.1006 16.979 54.0236 16.7457 53.8715 16.5228M45.2812 15.7087C45.2812 14.7481 45.6005 13.9309 46.2389 13.257C46.8844 12.5821 47.666 12.2452 48.5836 12.2452C49.6074 12.2452 50.3659 12.5518 50.8583 13.1639L45.2812 15.782V15.7098V15.7087Z" fill="black"/>
<path d="M57.5655 5.37402C57.8857 5.37402 58.164 5.49645 58.3991 5.74026C58.6343 5.9914 58.7524 6.29066 58.7524 6.64016V20.4442C58.7524 20.8 58.6343 21.0961 58.3991 21.3336C58.164 21.5848 57.8857 21.7103 57.5655 21.7103H57.5365C57.2163 21.7103 56.938 21.5848 56.7029 21.3336C56.4677 21.0971 56.3496 20.8 56.3496 20.4442V6.64016C56.3496 6.29171 56.4677 5.9914 56.7029 5.74026C56.938 5.49645 57.2163 5.37402 57.5365 5.37402H57.5655Z" fill="black"/>
<path d="M62.729 8.31146C62.3428 8.31146 62.0135 8.16914 61.7413 7.88348C61.4681 7.59886 61.332 7.25355 61.332 6.85069C61.332 6.44783 61.4681 6.11403 61.7413 5.82836C62.0135 5.54375 62.3428 5.40039 62.729 5.40039C63.1153 5.40039 63.4345 5.5427 63.7067 5.82836C63.9859 6.10671 64.126 6.44783 64.126 6.85069C64.126 7.25355 63.9859 7.60514 63.7067 7.88348C63.4335 8.16914 63.1083 8.31146 62.729 8.31146Z" fill="black"/>
<path d="M62.7169 9.68164C63.0501 9.68164 63.3283 9.80721 63.5504 10.0573C63.7856 10.3074 63.9037 10.6077 63.9037 10.9551V20.4448C63.9037 20.7996 63.7856 21.0957 63.5504 21.3322C63.3283 21.5823 63.0501 21.7078 62.7169 21.7078H62.6968C62.3696 21.7078 62.0884 21.5823 61.8533 21.3322C61.6181 21.0957 61.5 20.7996 61.5 20.4448V10.9551C61.5 10.6067 61.6181 10.3074 61.8533 10.0573C62.0884 9.80721 62.3696 9.68164 62.6968 9.68164H62.7169Z" fill="black"/>
<path d="M68.7964 16.4319C68.7964 17.1205 69.0236 17.7085 69.4789 18.1951C69.9403 18.6817 70.5017 18.9255 71.1611 18.9255C71.8206 18.9255 72.4121 18.6597 72.8854 18.1281C73.3007 17.6625 73.5169 17.0388 73.5169 16.4016V10.9551C73.5169 10.6077 73.6349 10.3084 73.8701 10.0583C74.1053 9.80825 74.3865 9.68269 74.7137 9.68269H74.7337C75.067 9.68269 75.3452 9.80825 75.5673 10.0583C75.8025 10.3084 75.9206 10.6077 75.9206 10.9551V20.9398C75.9206 22.3168 75.4332 23.5066 74.4585 24.508C73.5099 25.4958 72.4181 25.9897 71.1822 25.9897C70.2015 25.9897 69.3088 25.7323 68.5042 25.2174C67.7197 24.7162 67.1242 24.0455 66.7189 23.2042C66.6269 23.0158 66.5818 22.8285 66.5818 22.6412C66.5818 22.4811 66.6149 22.321 66.6799 22.1609C66.811 21.7989 67.0392 21.5593 67.3664 21.441L67.4054 21.4201C67.5495 21.3719 67.6896 21.3468 67.8267 21.3468C67.9638 21.3468 68.1109 21.3751 68.249 21.4305C68.5172 21.5488 68.7194 21.7466 68.8575 22.0249C69.0666 22.4424 69.3809 22.7793 69.7992 23.0368C70.2245 23.3015 70.6848 23.4333 71.1822 23.4333C71.8036 23.4333 72.346 23.1895 72.8103 22.703C73.2817 22.2017 73.5169 21.6147 73.5169 20.9398V20.8561C72.9905 21.2663 72.1989 21.4714 71.1401 21.4714C69.8082 21.4714 68.6703 20.9775 67.7247 19.9897C66.779 19.0092 66.3066 17.8236 66.3066 16.4319V10.9541C66.3066 10.6067 66.4267 10.3074 66.6659 10.0573C66.9051 9.80721 67.1883 9.68164 67.5145 9.68164H67.5976C67.9208 9.68164 68.201 9.80721 68.4392 10.0573C68.6763 10.3074 68.7954 10.6067 68.7954 10.9541V16.4319H68.7964Z" fill="black"/>
<path d="M85.7423 24.4451L85.7063 24.4179C85.6593 24.3812 85.6032 24.3613 85.5442 24.3613C85.4571 24.3613 85.377 24.4032 85.322 24.4797C85.322 24.4797 85.1209 24.731 85.0568 24.8158C85.0088 24.8797 84.9868 24.9833 84.9998 25.086C85.0108 25.175 85.0468 25.2493 85.0978 25.2891L85.1329 25.3163C85.1809 25.353 85.2379 25.3729 85.297 25.3729C85.384 25.3729 85.4641 25.331 85.5151 25.2577C85.5362 25.2284 85.5642 25.1907 85.5952 25.1498C85.6683 25.0535 85.7583 24.9341 85.7903 24.8598C85.8414 24.7425 85.8604 24.5362 85.7433 24.4451H85.7423Z" fill="url(#paint0_linear_567_125)"/>
<path d="M86.49 24.8623L86.4549 24.8351C86.4179 24.8058 86.3649 24.7891 86.3058 24.7891C86.2148 24.7891 86.1287 24.8288 86.0907 24.8895L85.8365 25.2683C85.7915 25.3311 85.7725 25.4043 85.7815 25.4744C85.7905 25.5393 85.8235 25.5948 85.8765 25.6366L85.9426 25.69C85.9866 25.7245 86.0387 25.7423 86.0947 25.7423C86.1778 25.7423 86.2588 25.7015 86.3108 25.6325C86.3639 25.5623 86.493 25.3363 86.543 25.2474C86.6291 25.126 86.6051 24.9533 86.489 24.8634L86.49 24.8623Z" fill="url(#paint1_linear_567_125)"/>
<path d="M87.1502 25.3115C87.1122 25.2643 87.0682 25.2402 87.0181 25.2402C86.9521 25.2402 86.877 25.2821 86.816 25.3534C86.766 25.4121 86.6299 25.5975 86.6299 25.5975C86.5499 25.7096 86.5729 25.8699 86.6789 25.9537L86.7059 25.9746C86.732 25.9914 86.767 25.9998 86.806 25.9998C86.8981 25.9998 87.0081 25.9516 87.0732 25.8814C87.1052 25.8479 87.1602 25.7515 87.1802 25.6949C87.2122 25.6038 87.2403 25.4938 87.1722 25.344L87.1512 25.3104L87.1502 25.3115Z" fill="url(#paint2_linear_567_125)"/>
<path d="M84.3885 24.252C84.3095 24.3326 84.2554 24.4185 84.2394 24.4876C84.2094 24.6153 84.2204 24.7336 84.2664 24.7818C84.3395 24.8583 84.4035 24.8687 84.4576 24.8687C84.4756 24.8687 84.4926 24.8677 84.5216 24.8656C84.6606 24.8572 84.7397 24.7609 84.7727 24.7085C84.6386 24.474 84.4706 24.319 84.3895 24.252H84.3885Z" fill="url(#paint3_linear_567_125)"/>
<path d="M87.4788 25.2207C87.5308 25.3652 87.5258 25.5118 87.5218 25.5652C87.5188 25.6249 87.4938 25.7055 87.4688 25.7694C87.4928 25.7925 87.5328 25.8186 87.5858 25.8186C87.6048 25.8186 87.6258 25.8155 87.6388 25.8113C87.6628 25.7987 87.7339 25.7537 87.7459 25.6961C87.7459 25.693 87.7579 25.6458 87.7128 25.582L87.4788 25.2207Z" fill="url(#paint4_linear_567_125)"/>
<path d="M96.471 15.1508C96.471 9.78073 92.3039 5.42773 87.1632 5.42773C82.0225 5.42773 77.8555 9.78073 77.8555 15.1508C77.8555 18.3465 79.3325 21.178 81.6112 22.9506L81.6072 22.9569C82.0785 23.3221 82.5849 23.6465 83.1233 23.9165L83.6577 22.6587L83.8028 22.7079L83.6597 23.3859C83.7978 23.4435 84.4843 23.7574 84.9626 24.4083C85.0577 24.289 85.2388 24.0818 85.3849 24.0295C85.3939 24.0263 85.466 23.997 85.5711 23.997C85.6331 23.997 85.6952 24.0075 85.7592 24.0316C85.7752 24.0389 86.0924 24.1937 86.1375 24.5024C86.2025 24.4794 86.2896 24.4553 86.3807 24.4553C86.4447 24.4553 86.5027 24.4658 86.5588 24.4878C86.7419 24.5631 86.854 24.7065 86.885 24.9032C86.9281 24.8906 86.9821 24.8802 87.0401 24.8802C87.1502 24.8802 87.2503 24.9179 87.3313 24.9901L87.2143 24.8111L87.1742 24.7389C87.1572 24.6772 87.1722 24.5998 87.2403 24.5715C87.2573 24.5642 87.2763 24.5589 87.2993 24.5589C87.3423 24.5589 87.3824 24.5767 87.4134 24.6144C87.4204 24.6217 87.9518 25.4065 88.0379 25.5216C88.1089 25.6168 88.166 25.6294 88.219 25.6294C88.231 25.6294 88.243 25.6294 88.257 25.6273C88.3551 25.6147 88.4812 25.5425 88.5002 25.5227C88.5162 25.5059 88.5572 25.4431 88.5172 25.3165C88.4882 25.2192 88.0949 24.6385 87.8527 24.2952C87.8457 24.2848 87.8077 24.2283 87.8127 24.1613C87.8197 24.0964 87.8888 24.0347 87.9578 24.0347C87.9938 24.0347 88.0289 24.0514 88.0559 24.0797C88.0969 24.1268 88.1219 24.1624 88.172 24.2314C88.213 24.2911 88.8254 25.215 88.8294 25.2182C88.8294 25.2203 88.8574 25.2611 88.9415 25.2611C88.9745 25.2611 89.0126 25.2537 89.0516 25.2433C89.2177 25.1931 89.2547 25.1282 89.2798 25.0863C89.2918 25.0643 89.3088 24.9921 89.2708 24.9199C89.2307 24.8404 88.7584 24.1624 88.4491 23.726L88.4391 23.7135L88.4362 23.6957C88.4331 23.681 88.4241 23.6266 88.4522 23.5806C88.4732 23.5429 88.5142 23.5188 88.5612 23.5188C88.6083 23.5188 88.6543 23.5408 88.6923 23.5806C88.7574 23.6475 88.8074 23.7155 88.8074 23.7176L89.5099 24.7117C89.5099 24.7117 89.551 24.7567 89.608 24.7567C89.632 24.7567 89.656 24.7494 89.675 24.7389C89.7181 24.7086 89.8372 24.6092 89.8772 24.5192C89.9132 24.4365 89.8752 24.357 89.8442 24.2942L89.8322 24.2691C89.8111 24.222 89.4579 23.5764 89.2227 23.1526C89.2227 23.1505 89.1567 23.0228 89.0506 22.9726C89.0096 22.9527 88.9105 22.8931 88.7814 22.8125C88.4902 22.6336 88.0519 22.3615 87.7857 22.2621C87.7807 22.2621 87.3874 22.1449 86.9371 22.1177L86.911 22.1156L86.904 22.1135C86.875 22.1135 86.866 22.1261 86.863 22.1334C86.851 22.148 86.6038 22.4902 86.3246 22.6869C86.2125 22.7686 85.9884 22.8491 85.7812 22.8491C85.6621 22.8491 85.5591 22.824 85.474 22.7738C85.2518 22.6419 85.1718 22.4902 85.1708 22.4892C85.1468 22.4473 85.1207 22.3542 85.1728 22.2694C85.2138 22.1993 85.532 21.6311 85.6661 21.312C85.49 21.3622 85.1848 21.4386 84.9126 21.4616L84.8906 21.4637L84.3062 21.1393L84.5533 20.5607C84.2831 20.4184 84.0279 20.2541 83.7868 20.073C82.3257 18.9764 81.383 17.1693 81.383 15.1519C81.383 11.8233 83.9779 9.11418 87.1662 9.11418C90.3545 9.11418 92.9494 11.8222 92.9494 15.1519C92.9494 16.823 92.327 18.2147 91.2782 19.3678C90.8869 19.7874 90.4406 20.1526 89.9462 20.4414L90.4586 21.6447L90.3255 21.7222L89.9823 21.177L89.5339 21.4166L88.9075 21.4689C88.8865 21.4658 88.4121 21.3842 87.7727 20.8987C87.7537 20.8861 87.7226 20.8694 87.7196 20.8683C87.7196 20.8683 86.6969 20.928 86.2105 20.9478C86.1895 20.9478 86.1815 20.9604 86.1815 20.9604C86.1605 21.0054 85.6912 22.0895 85.512 22.3333C85.512 22.3333 85.51 22.3458 85.517 22.373C85.531 22.4023 85.6391 22.5132 85.8222 22.5132C85.8943 22.5132 85.9744 22.4955 86.0514 22.4609C86.0564 22.4588 86.5298 22.2213 86.7069 21.5861L86.7569 21.4093L86.847 21.5663C86.852 21.5757 86.89 21.6479 86.895 21.7661C87.1172 21.7891 87.7406 21.8603 87.9008 21.9252C87.9458 21.9471 89.0116 22.4735 89.4879 22.9015C89.5139 22.9067 89.56 22.9119 89.616 22.9119C89.668 22.9119 89.7141 22.9067 89.7541 22.8973L89.9132 22.8575L89.8412 23.0092C89.8382 23.0166 89.7821 23.1296 89.62 23.1735C89.675 23.3001 89.7961 23.5575 90.0273 23.973C90.1344 23.839 90.3425 23.591 90.5136 23.4466L91.1041 23.1631L91.3763 23.8055C91.9467 23.5 92.4761 23.139 92.9624 22.7319V22.734C92.9734 22.7257 92.9824 22.7173 92.9914 22.7089C93.0075 22.6953 93.0225 22.6807 93.0385 22.6671C93.1796 22.5467 93.3177 22.4212 93.4518 22.2935C93.4618 22.2841 93.4728 22.2757 93.4818 22.2663C93.4818 22.2663 93.4818 22.2663 93.4808 22.2652C95.3181 20.4927 96.475 17.9729 96.475 15.1519L96.471 15.1508Z" fill="url(#paint5_linear_567_125)"/>
<path d="M84.9736 0H89.3517C90.1994 0 90.8859 0.717827 90.8859 1.60412V1.61982C90.8859 2.50611 90.1994 3.22394 89.3517 3.22394H84.9736C84.1259 3.22394 83.4395 2.50611 83.4395 1.61982V1.60412C83.4395 0.717827 84.1259 0 84.9736 0Z" fill="url(#paint6_linear_567_125)"/>
<defs>
<linearGradient id="paint0_linear_567_125" x1="85.4131" y1="25.3729" x2="85.4131" y2="24.3613" gradientUnits="userSpaceOnUse">
<stop stop-color="#CF1669"/>
<stop offset="0.62" stop-color="#E74445"/>
<stop offset="1" stop-color="#F55C33"/>
</linearGradient>
<linearGradient id="paint1_linear_567_125" x1="86.1878" y1="25.7413" x2="86.1878" y2="24.7891" gradientUnits="userSpaceOnUse">
<stop stop-color="#CF1669"/>
<stop offset="0.62" stop-color="#E74445"/>
<stop offset="1" stop-color="#F55C33"/>
</linearGradient>
<linearGradient id="paint2_linear_567_125" x1="86.8981" y1="25.9998" x2="86.8981" y2="25.2402" gradientUnits="userSpaceOnUse">
<stop stop-color="#CF1669"/>
<stop offset="0.62" stop-color="#E74445"/>
<stop offset="1" stop-color="#F55C33"/>
</linearGradient>
<linearGradient id="paint3_linear_567_125" x1="84.4976" y1="24.8687" x2="84.4976" y2="24.252" gradientUnits="userSpaceOnUse">
<stop stop-color="#CF1669"/>
<stop offset="0.62" stop-color="#E74445"/>
<stop offset="1" stop-color="#F55C33"/>
</linearGradient>
<linearGradient id="paint4_linear_567_125" x1="87.6078" y1="25.8186" x2="87.6078" y2="25.2207" gradientUnits="userSpaceOnUse">
<stop stop-color="#CF1669"/>
<stop offset="0.62" stop-color="#E74445"/>
<stop offset="1" stop-color="#F55C33"/>
</linearGradient>
<linearGradient id="paint5_linear_567_125" x1="87.1632" y1="25.6294" x2="87.1632" y2="5.42773" gradientUnits="userSpaceOnUse">
<stop stop-color="#CF1669"/>
<stop offset="0.62" stop-color="#E74445"/>
<stop offset="1" stop-color="#F55C33"/>
</linearGradient>
<linearGradient id="paint6_linear_567_125" x1="87.1632" y1="3.22394" x2="87.1632" y2="0" gradientUnits="userSpaceOnUse">
<stop stop-color="#CF1669"/>
<stop offset="0.62" stop-color="#E74445"/>
<stop offset="1" stop-color="#F55C33"/>
</linearGradient>
</defs>
</svg>
